<mxfile host="Electron" modified="2024-11-27T02:18:55.637Z" agent="Mozilla/5.0 (Windows NT 10.0; Win64; x64) AppleWebKit/537.36 (KHTML, like Gecko) draw.io/24.1.0 Chrome/120.0.6099.109 Electron/28.1.0 Safari/537.36" etag="kDYKHBG01qKlSb_ffdnS" version="24.1.0" type="device">
  <diagram name="Page-1" id="V804RJAgLrduN12KLeBs">
    <mxGraphModel dx="1884" dy="1102" grid="1" gridSize="10" guides="1" tooltips="1" connect="1" arrows="1" fold="1" page="1" pageScale="1" pageWidth="900" pageHeight="1600" math="0" shadow="0">
      <root>
        <mxCell id="0" />
        <mxCell id="1" parent="0" />
        <mxCell id="lYGBHWqPXG79mbcpfp-p-15" value="" style="edgeStyle=orthogonalEdgeStyle;rounded=0;orthogonalLoop=1;jettySize=auto;html=1;" parent="1" source="lYGBHWqPXG79mbcpfp-p-1" target="lYGBHWqPXG79mbcpfp-p-2" edge="1">
          <mxGeometry relative="1" as="geometry" />
        </mxCell>
        <mxCell id="lYGBHWqPXG79mbcpfp-p-1" value="" style="image;aspect=fixed;html=1;points=[];align=center;fontSize=12;image=img/lib/azure2/management_governance/My_Customers.svg;" parent="1" vertex="1">
          <mxGeometry x="30" y="170" width="123.21" height="100" as="geometry" />
        </mxCell>
        <mxCell id="lYGBHWqPXG79mbcpfp-p-17" style="edgeStyle=orthogonalEdgeStyle;rounded=0;orthogonalLoop=1;jettySize=auto;html=1;entryX=0;entryY=0.5;entryDx=0;entryDy=0;" parent="1" source="lYGBHWqPXG79mbcpfp-p-2" target="lYGBHWqPXG79mbcpfp-p-3" edge="1">
          <mxGeometry relative="1" as="geometry" />
        </mxCell>
        <mxCell id="lYGBHWqPXG79mbcpfp-p-18" style="edgeStyle=orthogonalEdgeStyle;rounded=0;orthogonalLoop=1;jettySize=auto;html=1;entryX=0;entryY=0.5;entryDx=0;entryDy=0;" parent="1" source="lYGBHWqPXG79mbcpfp-p-2" target="lYGBHWqPXG79mbcpfp-p-4" edge="1">
          <mxGeometry relative="1" as="geometry" />
        </mxCell>
        <mxCell id="lYGBHWqPXG79mbcpfp-p-2" value="Store-front" style="whiteSpace=wrap;html=1;aspect=fixed;" parent="1" vertex="1">
          <mxGeometry x="230" y="160" width="120" height="120" as="geometry" />
        </mxCell>
        <mxCell id="lYGBHWqPXG79mbcpfp-p-19" style="edgeStyle=orthogonalEdgeStyle;rounded=0;orthogonalLoop=1;jettySize=auto;html=1;" parent="1" source="lYGBHWqPXG79mbcpfp-p-3" target="lYGBHWqPXG79mbcpfp-p-5" edge="1">
          <mxGeometry relative="1" as="geometry" />
        </mxCell>
        <mxCell id="lYGBHWqPXG79mbcpfp-p-3" value="Order-Service" style="whiteSpace=wrap;html=1;aspect=fixed;" parent="1" vertex="1">
          <mxGeometry x="520" y="60" width="110" height="110" as="geometry" />
        </mxCell>
        <mxCell id="lYGBHWqPXG79mbcpfp-p-20" style="edgeStyle=orthogonalEdgeStyle;rounded=0;orthogonalLoop=1;jettySize=auto;html=1;" parent="1" source="lYGBHWqPXG79mbcpfp-p-4" edge="1">
          <mxGeometry relative="1" as="geometry">
            <mxPoint x="680" y="240" as="targetPoint" />
          </mxGeometry>
        </mxCell>
        <mxCell id="lYGBHWqPXG79mbcpfp-p-4" value="Product-Service" style="whiteSpace=wrap;html=1;aspect=fixed;" parent="1" vertex="1">
          <mxGeometry x="520" y="260" width="110" height="110" as="geometry" />
        </mxCell>
        <mxCell id="lYGBHWqPXG79mbcpfp-p-5" value="order-queue" style="shape=cylinder3;whiteSpace=wrap;html=1;boundedLbl=1;backgroundOutline=1;size=15;direction=south;" parent="1" vertex="1">
          <mxGeometry x="740" y="200" width="180" height="100" as="geometry" />
        </mxCell>
        <mxCell id="lYGBHWqPXG79mbcpfp-p-21" value="" style="edgeStyle=orthogonalEdgeStyle;rounded=0;orthogonalLoop=1;jettySize=auto;html=1;" parent="1" source="lYGBHWqPXG79mbcpfp-p-6" target="lYGBHWqPXG79mbcpfp-p-7" edge="1">
          <mxGeometry relative="1" as="geometry" />
        </mxCell>
        <mxCell id="lYGBHWqPXG79mbcpfp-p-6" value="" style="verticalLabelPosition=bottom;aspect=fixed;html=1;shape=mxgraph.salesforce.employees;" parent="1" vertex="1">
          <mxGeometry x="40" y="450" width="116.4" height="120" as="geometry" />
        </mxCell>
        <mxCell id="lYGBHWqPXG79mbcpfp-p-22" style="edgeStyle=orthogonalEdgeStyle;rounded=0;orthogonalLoop=1;jettySize=auto;html=1;entryX=0;entryY=0.75;entryDx=0;entryDy=0;" parent="1" source="lYGBHWqPXG79mbcpfp-p-7" target="lYGBHWqPXG79mbcpfp-p-4" edge="1">
          <mxGeometry relative="1" as="geometry" />
        </mxCell>
        <mxCell id="lYGBHWqPXG79mbcpfp-p-23" style="edgeStyle=orthogonalEdgeStyle;rounded=0;orthogonalLoop=1;jettySize=auto;html=1;entryX=0;entryY=0.5;entryDx=0;entryDy=0;" parent="1" source="lYGBHWqPXG79mbcpfp-p-7" target="lYGBHWqPXG79mbcpfp-p-8" edge="1">
          <mxGeometry relative="1" as="geometry" />
        </mxCell>
        <mxCell id="lYGBHWqPXG79mbcpfp-p-24" style="edgeStyle=orthogonalEdgeStyle;rounded=0;orthogonalLoop=1;jettySize=auto;html=1;entryX=0;entryY=0.5;entryDx=0;entryDy=0;" parent="1" source="lYGBHWqPXG79mbcpfp-p-7" target="lYGBHWqPXG79mbcpfp-p-10" edge="1">
          <mxGeometry relative="1" as="geometry" />
        </mxCell>
        <mxCell id="lYGBHWqPXG79mbcpfp-p-7" value="Store-admin" style="whiteSpace=wrap;html=1;aspect=fixed;" parent="1" vertex="1">
          <mxGeometry x="220" y="450" width="120" height="120" as="geometry" />
        </mxCell>
        <mxCell id="lYGBHWqPXG79mbcpfp-p-25" value="" style="edgeStyle=orthogonalEdgeStyle;rounded=0;orthogonalLoop=1;jettySize=auto;html=1;" parent="1" source="lYGBHWqPXG79mbcpfp-p-8" target="lYGBHWqPXG79mbcpfp-p-9" edge="1">
          <mxGeometry relative="1" as="geometry" />
        </mxCell>
        <mxCell id="Cd3x4vzOM7IuLFM8joMB-3" style="edgeStyle=orthogonalEdgeStyle;rounded=0;orthogonalLoop=1;jettySize=auto;html=1;entryX=0.25;entryY=0;entryDx=0;entryDy=0;" edge="1" parent="1" source="lYGBHWqPXG79mbcpfp-p-8" target="lYGBHWqPXG79mbcpfp-p-37">
          <mxGeometry relative="1" as="geometry" />
        </mxCell>
        <mxCell id="lYGBHWqPXG79mbcpfp-p-8" value="makeline-service" style="whiteSpace=wrap;html=1;aspect=fixed;" parent="1" vertex="1">
          <mxGeometry x="555" y="455" width="110" height="110" as="geometry" />
        </mxCell>
        <mxCell id="lYGBHWqPXG79mbcpfp-p-9" value="order-database&lt;div&gt;&lt;br&gt;&lt;/div&gt;" style="shape=cylinder3;whiteSpace=wrap;html=1;boundedLbl=1;backgroundOutline=1;size=15;" parent="1" vertex="1">
          <mxGeometry x="910" y="450" width="140" height="120" as="geometry" />
        </mxCell>
        <mxCell id="lYGBHWqPXG79mbcpfp-p-26" style="edgeStyle=orthogonalEdgeStyle;rounded=0;orthogonalLoop=1;jettySize=auto;html=1;entryX=0;entryY=0.5;entryDx=0;entryDy=0;" parent="1" source="lYGBHWqPXG79mbcpfp-p-10" target="lYGBHWqPXG79mbcpfp-p-12" edge="1">
          <mxGeometry relative="1" as="geometry" />
        </mxCell>
        <mxCell id="lYGBHWqPXG79mbcpfp-p-27" style="edgeStyle=orthogonalEdgeStyle;rounded=0;orthogonalLoop=1;jettySize=auto;html=1;entryX=0;entryY=0.75;entryDx=0;entryDy=0;" parent="1" source="lYGBHWqPXG79mbcpfp-p-10" target="lYGBHWqPXG79mbcpfp-p-13" edge="1">
          <mxGeometry relative="1" as="geometry" />
        </mxCell>
        <mxCell id="lYGBHWqPXG79mbcpfp-p-10" value="ai-service" style="whiteSpace=wrap;html=1;aspect=fixed;" parent="1" vertex="1">
          <mxGeometry x="520" y="740" width="80" height="80" as="geometry" />
        </mxCell>
        <mxCell id="lYGBHWqPXG79mbcpfp-p-12" value="LLM" style="rounded=0;whiteSpace=wrap;html=1;" parent="1" vertex="1">
          <mxGeometry x="660" y="670" width="140" height="80" as="geometry" />
        </mxCell>
        <mxCell id="lYGBHWqPXG79mbcpfp-p-13" value="Dall-e-3" style="rounded=0;whiteSpace=wrap;html=1;" parent="1" vertex="1">
          <mxGeometry x="660" y="790" width="150" height="80" as="geometry" />
        </mxCell>
        <mxCell id="lYGBHWqPXG79mbcpfp-p-28" value="CUSTOMERS&lt;div&gt;&lt;br&gt;&lt;/div&gt;" style="text;html=1;align=center;verticalAlign=middle;resizable=0;points=[];autosize=1;strokeColor=none;fillColor=none;" parent="1" vertex="1">
          <mxGeometry x="48.2" y="280" width="100" height="40" as="geometry" />
        </mxCell>
        <mxCell id="lYGBHWqPXG79mbcpfp-p-29" value="&lt;div&gt;Employees&lt;/div&gt;&lt;div&gt;&lt;br&gt;&lt;/div&gt;" style="text;html=1;align=center;verticalAlign=middle;resizable=0;points=[];autosize=1;strokeColor=none;fillColor=none;" parent="1" vertex="1">
          <mxGeometry x="66.4" y="580" width="80" height="40" as="geometry" />
        </mxCell>
        <mxCell id="lYGBHWqPXG79mbcpfp-p-30" value="" style="shape=image;verticalLabelPosition=bottom;labelBackgroundColor=default;verticalAlign=top;aspect=fixed;imageAspect=0;image=data:image/png,iVBORw0KGgoAAAANSUhEUgAAAMwAAADACAMAAAB/Pny7AAAAulBMVEX///9BuIM0SV40Rl1CvYU5tn8zQVwwtHszRF0zPlvq9vD6/fxBtYI0TF8nsngzPFs/qX7e8eiN0LBAr4DY7uNCwYY8lHY2YGU5d2yk2b9Wvo87jHM4b2k1WmPN6ds1VmJ/y6c+oHqW07Zyx586hXFmw5iy3sk3aGfIz9HA5NIdOFGBjZe1vcFsfIfk5+mps7dIXmyOnKIIrm8AJ0YYPlIAMUkQL0sAGToyMFhZbnoAFDvR29ubqK1DVWi05+vfAAAJy0lEQVR4nNWd62LaOBCFLWxhYxsDAUICuUBCIPem6W7bbdP3f60FDOUm2+fY8iXf78RmGGk0Z0YShkikP23VMD4Mmq8m9ujWtJ/8SY3kPxH9JvZG8+2eteX+D/joJmALZIw1AV3z+ORxtnhPj9iTWxNLkzHCuqiD398zZ8wz6PPGBWILZoxo17CXPr68Mra8vmCOMWtd6GNixohpA3pr7fELMdC8L+Aga0yxTwka0710sO/wjXDN6xvmb2eAOQY1Rpxis6b2/SvsGu/rd+yZjVPwQ6LG+GAMqD3C4fkeHWQXvmZjrAkYeJwX0DXeCzhym1BYZowR/hkYA76Brrn/hj2vcYY6BjfGmqAx4B/MmH9BT1/CjsGNEdYUM2YRAxBb0NnvTGFbGGO6c9CaH8Cs8X6AtszbhDESt2YExoDHl2Rj4Nk/wm2RhDHCR12THJ7RsGzCYXllzEkA/zEcns23hIHmgWs/EZaFCE4Ml3CNdQZKKTNBpn1gj6mZZ7gtQrqGMSNc022CHyI+RUOTslqzSzhmtniye4f7pj8FkxozNjyjWrk+QvRliLxzl4++wl0jLB0K+h6dMZfEIAuuwtk4ZmLAT+xLjVHQsFb+SSwxwXj9vp4kBtoAXSAiFfQXULbW58Qgk73NV0XEANFFixtRChrVyrUWscQEs78DoUPEAAtX0BGOgbUysfbfdbYvmDF5wDU20Jy33ypbfr+B/37NrP2znTe4Yxv+R+sUdI1SQcNauX6KO8Yeu7vveBjivvHnaBVNEZ7v4UoZ7hjpP+x/YSfEQJvAVbQj13hopaw5wT+PHB+8p8e45gwtbhyF52d49hOOGfYOX3NDBDRUQTt/Dr4y7w/4j4RWFuLmaDC7hGsErKAPsmd49oMlzCVy6B4ZY8zw/7faYAyofd9zjQcWZOpzIluW58e2GAbhGmuEpiR7Cvo/NBUiwrIcqmwxevhagxc4f+2snPe/sP+pX+AfRNhHsz+EWTkn16jw3T4flQ/XxOy3x2pbDJcRNqiC3qZoH2gRg9HKgWL2h5wTwqYNuqbWXGfPr2j78pqRMcrZH0LEgP4UNMZ5Cp/9hP49ky2rZ38IoaAt/xL8pv+sUjS4rzxgZMxVjDEelT2jxY1liua9oEUMavbH1ud6+LciLHTlXCroZ7BIVZ8Ts19EhOWNa5gY4KPFjZdXWCv/9JnZn1A4ZRR0H+0/1T7QEmbrjKmUdeJtWci0d/hpwnLAiYBiOsQge39IsoVS0OIU3SIE0prg7z7QyhGuEUTCicYAjPoct0WKZMcsYsAN4ZoJKGwwnDb+ZvsG6mozClqgChqhjveVVVpZzTlui2iDVTSARVJGvDgmKduDaXKIkTZjnBH+1nUDA4FQ0KKrKwYstDLx2lmyFWu8W8I1p6DmSmChlfF3yltiJ9gVU3tGFXQ8daqvHJctHzFmqmg6YoDDaGU5ZmwxPEpB6zDmDH+hCMh9rZSCBguccbZcatLKapjW4DS7Z5A92GukZG0xrojsWYCNzmjHDIiXvVOzP+SWUdBZHcN0lm55W4wOkW9aF5nWGhPbg71C2omSTAUTA7qZxpmT6+xfwTQ58JMcCqATGGuUDQyEB2KxEWBbQIFZI15jI5JM6RqqipbaNa30fWXKNYSCFoOUKVqdCcsiRVhe490QA62d0jUtQpIFmFZWc0Up6FTWtIikTA7TO2bBObHYdNMIG7NJSDI7XVje0CFkmj9CC5w7wCcwxFKSpVovt8yIGADv4t7iEFpZElpZjUspaHaxMWuMY+IbGAhXhGvgfSgbqEpZhrD8F2KLEKugOa18kt0Ww/WZfSjUOHOYXSV+6rV/FyI8W21GpjkDJlvOOvtDPKYtMAXbfUuoExhxfWUGRkH7uGscpq+cRiurYbYIwQVOaruPfafLFsNjWoNzdPMC01d+z7zEbKGqaJhrzGb+WlmNR4TnPrZy1hmt7Gt0DKmgEdeYTeKBQVqtrIZR0H1EQVNa+VbLermFaXJYyQq6PmDOX2kLy2sYBW21k41hZn8WrayG6UFbSQq6RWz2g/vKDBoVNKeV9SRl+3SISroYxbqmRUgy7bM/hDlk042LAfA1EivycAy5TXASY4zGzX7pYapoMQoavatkScZKWRyUgm5GaIHitbKaDuOaqJMclFYeZqyUxXFOuCZCQVNaWX0CQxMedZJDtdhwtxXc5TT7Qx6YlVNV4GRKmMLObfaHEAVOlYI2r6nOUr62GC6joC+OXEOdwNCpldVQ2fPhSQ7qBMZ7nrM/hNsidGgM4xg7d8dwu7j9/VlDaWVgD3Z2PCJ77u+f5KDOKzOb/dLDHLTbuwvBGeAFmciDcZrhFPSOsGmUq5XVMCnazkmOBnMCI8+kbA9vlkZBm02iTm7PCnLMstFJyLSNgm4RSVlOWlkNs4vbDxV0nWlg5KSV1XgnzEmO1axxJvh/2CeFDbIlnIJuLGc/bkuOWlkNdRdC06QaGPL4toJ84RR0q8WcwCgsLP+FUtCXzB5s+GiMPjzqkA1zW0G+WlnNA24LRxHZ8hHESQ6C3LWymk4etghZ+OwPYXZwogRFh+UNXg7jTJYw+0MYBY1RiFZWQ4VnBLuMsLyho3nWBCXN/hUecdkrYkux2fIhLrPBPgkpCpRkKqh9KAlo3lXCwyjoBArVymo0pmhlO2bhGkZBx2GflO4Y8iRHNIVrZSUeoaDjjCmqhBkPc1VNtC3Jl8gUA3NNRSTFa2U11F0IagpqYCA8MMcFVBxeuFoqWV0j05xXzotOthSt9KRsH+YWIYUxZWnlCLLMGjmszOwPYa5JP6T0bPmIYeqBpvEEhi56qV1TqlaOIK2CDvLb7JceN61nKhWWN8xSVdHei2xf4lA3iW2w8bu9ioX5uZQNsReulonLx4CgClpZTY9N0WTChatl4jEnOZbYSReulkmPiwGV0cpqmH0oothdJTwu0+iU6S+RKQZCQcth5bLlAzzcNRqukcgb+KBdLgfjdIMessnxaIw+wOxZ+mV/UAhsB2fqu70KBpk12q6RyBukB/1e8SVmS/KPDQbjsj8jjJt0o2jFSpjxJFXRKqqV1STsQyl1VwlPvILO+2CcZmL3oZS8q4QnVkF/gqRsj5ifS0n8cZLqEdmDrrhWVhOVouVyjUTeRFxVk+HC1TJRKujqa2U1yh8clZ8tLG9QbBGqxnafVCi2CFVlVwnP0V3cqe/BrgJHV9V8ztm/Zt81snp9ZYb9HnQV+8oMuytnSUdj9LFzF4Jkf5ykemyzZ61XLpbEJgZ8mkpZHBsFXdm+MsP6JrGg+g0MhJWClv5n08pqVgo6KO62gnxZKOhPqZXVzAJN92BXAXf8ObWymqtiwvL/yRfhw+wOMWgAAAAASUVORK5CYII=;" parent="1" vertex="1">
          <mxGeometry x="274.06" y="240" width="31.88" height="30" as="geometry" />
        </mxCell>
        <mxCell id="lYGBHWqPXG79mbcpfp-p-35" value="" style="shape=image;verticalLabelPosition=bottom;labelBackgroundColor=default;verticalAlign=top;aspect=fixed;imageAspect=0;image=data:image/png,iVBORw0KGgoAAAANSUhEUgAAAJQAAACUCAMAAABC4vDmAAAAzFBMVEX////u7u7t7e2AvQIzMzP09PT6+vrs7Oz+/v7w8PD9/f339/f4+Ph7uwBytwAAAACx1IEmJibE353///r6/PTY6r0NDQ339Pvj7s6Cvh+mpqYeHh6kzHA9PT1tbW3Nzc0YGBjb29vr8OSRkZGKwURkZGSFhYXM4bHf4dyvr68uMCt6enqkz2u52IyeymG415Lt9ODT5L66urpAQjp0d2+eoZrN5KxTU1S41ZjIysOWxlZcX1lJSUq9wbaNwzhpbGNRU0yFv1JgsAB4uTU9rRqgAAAQXklEQVR4nO1ceXuaShdniMMOcSEC0VRDaUwao9DFGt9e79Lv/53e2WfYFBPT9o9OnudepzCcH4czZwdNIwPqAAAd0gnAQ3fJb4dMTINMDHwWsB26hByxyW/LVpZY5CygLtEtMnF1uUSjSyhJh074Eu0PqMOgzN8R1C/klP5CTuGJ2QTKVEEpFCxbV0CZ6m2braAUkpVb1yAZroeHSyeeMnFbjzSc5TWsb5gcPUvTyfAYRjxMeieuiSe2xdiCB+RswWfR23LIWexZeXSi1ZZoZAmXCErFUpdUqBDGAQaKclGTvAYcFDnCQSmPxzEVAfKoNDVIhCpz7Fk5ypKSmP4B1QGUzqj8FjJVpcJ2n4EH2xfkt+GqE1ifePXJsSWuOjHqJPkSrYHXQFE6DlUniibU2/UU42RH5anqqTKVRlB1AWjS6IrNaNPoo0PKE4BW5flyUOAoqE+fbyGsgvrVtu/6cvxhhh/t7+QlXI97g8kX02gHBQ5yysSDgdLJhO9fMuHWFQ/gKEs4BXW9yZcgUL3epPfVEVqmZYkFSlQalCe/LVBjS+m2PAZa2WqeygmoGwRUr3c5Ymzx1PWOyvyKigYKhTNr9Cqo7hq9zqlfCAr8AXUiqLMYZL3JIJsqqNOcPPfthiZAeScu5LeFwQuDjCec1wpbDMo8Ry6R1lWutwTzOKhQLzG/vqRChYN6K41OQYHzmhmrHZRt2+2gbOicDKqbQb59fG8adgsoZ9MvXLsFFIR/fWoBhR/f8/v7EsmuoIAR3vUmk5uvLmwMRuNl4PvLlOEoBaO6bcy+DSaPppQpCQodvH03mffuoKeAKj8PzSED3TIakE7wTxdef5zjK46/PXvQNsgBg55lOFr+FPgXFxe+vw3xFQxIjrh0vXH7OB/0egOynoBi6zEV4/5ujA725r0H6HKS9MK2RyaezdjiWngYzFSi+3r+MBnQSw4+PprMOkNylhOFwwRDwsPPFp4NbIMcwfduu/ZX5Bmo43JEHy9AnPQebtjBweTDDM3pdnHIeqY8rWaNfv94OZAXHcyRaEmNPiqS4EIMP9jFrtDoOoQP38e9XgWUxmVm9r9L5bqXd/f0yHGDbNtfP5ZvtTf//gBtBird+f6FOnx/mlJh9ACSl3mvOjgo9/5xMigdmXx8wFv4uO2zQa96q/jCf7sU1CYoQ6Lciiko+/3loGEtBeV+upzUjo1793YHTsFZ/V7RuDFtAiqpY0KohnT9bdNKDsp51wC4N/kL1jlFfVdukLGDOhP3M76RIotAEZuw7wZqMJe3hkDhCyugxgNxXQQKedjMIHMPuRYOa7d8e/S+QvNxMOCgHBzCWi2coss5qMHk2+z5Oyd8GdILc1CTz7Po7iOfzLRK0GzABuXJQE2+3OLZ7IaDIgY5agGFn4/uMVCDz9fQ1fSvAhRVnhzUtZEOtdsPdHY5I8pTP2L7GKj5jOha4/1AgtIPg+KcGnxCGg9ReF82MxTU4HG0SYJ9fouf7+T7QzczUwblvgTUDDZ5CQzUu3DnXwQLBGpw+b6rl8Af31uDuhy8M6GrgOrAqSZQR2RKAUVSVg9lg8xA3Wkb/78sB3fPELYY5FoyyRKPzyKHBCgH71GnRSWUdt/g0fSQP3X7bdC0+wZ/wbwwHNfxmlNeHqSBgykDB6GnJjPksKIY++uEgTpBT80/X2uIxWy3IT0FTF3qqfG3GQralcBB6inmITdodM4pYpUUUOAE5Tm/+Sz0Y12jj//m8UDHuI+DuuSg5i8BpQ4O6oM0M5Pe3QtADcaPJgV1+22sgir8OqrgBzXIhvlPg90c31CH3HiYK8ZvMrgenQhq/PmTSz0dSzOvJxMCim6VfBlU2BT0Uxbu2uZj1U2YjK9NCsqGtx8Ub6o3//u5KcGBqTBHlHme2NudTSZITpFzRD1kJIP23WCCQNnE89Ssq53CLN9fpZHwPG3t/sNA9Q/RRkReu0WpGNrzN8V7mVyajAr3PKm7bdV9dO328su9wR1uitOYfb9xLe6jayPpVAX+1QhdQ/romvFJuojjf55dcohTcc2vws+b3zy4ZR+dRwINylPTsYItB6OIW5oazYQscNhvyFmllLVmXFM/HBs2q5qydsw7wsr592skQ92zww0pknrcF+8CJEx5JEAhv5bHr+79l/FgML4zG/Louu3N/hlP5nemC06O+46G7VbRjyMRjEZhnufsAAJo3b57NOWSah79+T1oCEbPkR1WwnYtXGdJst/FI42F7ZBv6MM15CPZYSXroh/MusjssE7MEB6LfUCVwzJmWRdTVxM1aspLZofbsy5lU9hW/VEnXqX6Y+QrsRn9pB96rQUntxMV10DPSgdKJg/NxG2hQzKTh08TmTx8FsvkRelTKejyk+2ILcEXlqU1WSsnBxgVZJCBksljVGoa/bScZ7jlxtDn9sffxTUxrW1o29vs/s2e8oaU16tBXe0CDmlYrPjvYJofARXlyfIqL9b+IqqamdeCyleMOxTGqNhzWMk6JDmRNlB2MkwXiyLMgyvYxild3b8qKEWmZJGRUrDCNRemYFdQcumGe8tBtnCjFlA6gOultfhvmqycYu8pt142yK5qgkrmkNojqOSvWDJqIYRpv4U8/+SmS4bUR6IlU16wQuXf2FnstU2ShlkMhdXjVOiNHKhiletLoooVSwF6SkslKeVIP2RLqlWs8IelLfxpsrbhFDO5WsXSao+ng0bPJT9IGqiU83QWGedhMAyjJo0e/gi1RbDZTW24wqBebfv0KNwKydkXqpgxgxyla1+IVoETWzUzMx0iUNoiA3kSaq+2fTp0pTAlQxc2gNLtKF1e8H25Q0JjVkHFSV7so2KXTqfaazllgqiQTw45LuU8umwBsGGRCQ02DaNatb2fFWHkxP192HDrGvFDLTXRKkApuVmDucv5k7K5InLbJDdLNQxdYjEFJ0UrGYb4CC+2EiKbH9lylaxCur5ERecqgZpK5pVS68hUAjWo+HcULXgKNkgWHg2g1bM8deJG6VRRZI6gQj3sKI2Hm1wrreckj5RrFeVpw6tEKmzXbqr30YmQiEhoLQQrjqTyxFRYhFyyG1yIyGWOmxndTqfCpizRk+vUFRTZiuXZwpKYnqGGbOeJ3E6R3akySvQHdwARs6bOMVDgNFAei/WCZBNGSrdMh/6pvM+eYTDsCqpbuTYqqL+bPI14+fBo/5R0d2P25PcplanWcq1ZKtey7kEyoDphR4y1T/RzjrYYPSJaEWvrRSuimBjGFXn4QW5IKq5ylkoSdy9qZYx4NAQOVh9d1J+Sm1QDh6baq2Yii16u8JraiIDaRGcs1+oOBRWVBYDE8HhYouyDor88zlM3gqWmLi1MiFBhceweYh0xM02gdLtYXC2uHI3GElFarPdJQMbFfrUlMeAxUK8JRhs5ZccBityDnICyjafMV1JXfuATd/QUUOfglH2FdyQpYFlRvK9krYjjnjaA6tL+ZpVqksRWsjJmqVhaAkXOkqDQJG/OZGchVX1AgKpSgYpBBswgg6N6ik0oKCbVbKswUEie0j1T2mj4PvkvnS9DxnwGirBF1VOGSqU9O9yo0b0SKCYAHBSIhky1ruOUjqsllS9/wZ6VCqpdo59m+w6C0j3CKH+aR1Bo9Jj+2+5XgbJTwpVkZKi2Lyb/GFingALnBBUQqS4bZK1PlHjxYk4d7clzD4LKS6C41MZIb/nMMzgGyiqD6pZMMphKUJNJLgNlGCmV89wqVX+8VbbPkgW5tMFVwsEeZ06SsbrUpw3UtrCSQY7U/impPEcJVUu7OA+xa2MD0j81Go2cEU5yIS0jlGfZIOtNBvlMGr0fMB2eZMv1+ipNwyhS+zh/ou2ToPJEKHEsR76/X/WLPDwR1JltH5L5iplBat1fbcJXcuo1MoUNclZvN0E823p0/UkyZb5898GIgXLwxAsXK2Hy5AhWbEnb7mskWSvXVpPeTXrKrBhk1udpFOvpLksSFVzwRJnfZpDrgcO5DLJ4oSGCaZrHRbHN9hxXkpNn9dPNDOAZQU9mVbR8SDNG1M78Atu3nvb7U7cSjDrp0hfP7+eDirFmCjbVCDkifoK/OgEUt33dIuSDnidRnX6/GiFTj4aCMk8TdJY0Y9Vb6j3TlJUmysq2zlWCLPgqeirMqESzJRovGG/o40OLpPJspuKwJbQ7srFc26DRrUMafUSEx19GlN+WSbqhnHBHHSq7JZpRi5DgBbbviJmh2Y9gd0XrV3YUId0QZyyp8QozcxDUMYNM80S+v3vabpCPUGw2/YxGDkHf7gzqzAZZeAk0vpIqPdgb3UGdapCdwwYZRQlNwSh6ovmLDHJDN39D8z/TU1bp37g7jH47eT+ox+0XT5Bfi4Fyur1OcAY9RTN5eT/xybig//P309wFnPnd9BRn3jlsHzPIabzdLrMs2e+z6XoTp5Eta8hvFoxe7MKDoDTDhri1JQxDh73LxUFBEoVR43w22+eSnKefXR0E5eHKud7wdu2oT/VDfgIotQWgpeIQc02Us26bmkxxCnVQI+bF+JTTDqXCZUqlUi7XesfKtcaURVF+P4yY1VoQULkst5ZeShC1V1EqDRZWrS/JK1GplGspRpaNUJUnf1bhVNSkNoQvbkptm6vVXrwgT4Eyz8pF9cQf0iopY8tZ3q41lOL6Ahm5dEXELBlptSKkBDUayrpX/CZv14ZLnkT0/WzPsmJrrR2U2qiwDd/o7Vot5uXOC9FDEreDEo05/n/9XOyds79dC6Ki3OcZ9LUWUFDUiWgDUzOo87xdG5WMnEi0Vt+ujYwhRx8kG8jTuV3frmUqAW9WS1UJ3EN2yBHe7OjgJsFtRiKFwM82mnBk5RK0u4xCFlFRNOOws1yVCl3CKsRlKi/oddGitNiu19tFEZJ6nw5ARXnmskq7zClbFJVxvnKtIgBYgGDEqvqOneLWPAUUTLkwIbMUR4oAvf2LrGJD7nAvgABlRxtRnvWH0G7v0nyzt2vzBdYRpHmKUFAr8v4aRtJ1OQ1UxclTe/IUJ6/2di3hVPyDPih/v6Xk8qnoJlnmULbx1d+uBc2fuwC6+rkL9TMwRtv3ZaB6FlpiiCaNIFtYWj4UwrQrnKYv17R9bKYyoTdySp+nWq6VrYt+MB0Km+IPw+h4n6cuSZ737Vo9kq1UUphI01SpXPuzP+IwulItjx+sYkhInA7qrJ+7CIci6guww6z6Uz+BU7VPPTEK+ZJGVvth+LLvT5VvnXfuA+nI0t5/oDY0AtZTDxRHFtIJ8XAto5hm2W5NXrXl5lBZAtqoEHPKlwgq1CADbpDxKkDpkCsAZp0JAsCvQCbUoBr0LEOzUGBF7gAxr7bEoktclQq1wV4Tlc6tSo0avVMDjnxWnQzyb/dVJfAH1MkGGTfxiLdr8R8DhVt7eBkEkgMcFJmI/ilTvDvgkYnon8LrOSgyER42/uMGGR8AFSodC0b1SeOLALX1rS8ldCrXAqBk8vCfMMjy3QGDBv5CeerK96fQBZTPXQBdV/Wt2aQ8S9nhEhUF1K/4zOGr+qeaQOlnAPULPvV0IqgXNzSDDt80U7VEV5kqc+o8u69hK5XeD3Lalhx4u/ZNPsujuLvM9z36WR7WQ/l/ouHcjGW663wAAAAASUVORK5CYII=;" parent="1" vertex="1">
          <mxGeometry x="555" y="130" width="40" height="40" as="geometry" />
        </mxCell>
        <mxCell id="lYGBHWqPXG79mbcpfp-p-36" value="" style="shape=image;verticalLabelPosition=bottom;labelBackgroundColor=default;verticalAlign=top;aspect=fixed;imageAspect=0;image=data:image/png,iVBORw0KGgoAAAANSUhEUgAAAJQAAACUCAMAAABC4vDmAAAAZlBMVEUAAAD///+bm5t2dnby8vLq6ur6+vr39/dSUlKVlZWLi4t6enri4uLu7u5KSko8PDzY2NgxMTFubm6ysrJERETOzs5nZ2cfHx+srKw2NjaBgYHFxcW8vLxhYWEXFxcLCwspKSmjo6OjSr90AAAJw0lEQVR4nM1c66KyKhC18lKmpqWVqaXv/5InQZTLDIK6v9P6td0hLGEYZoYBZ7cRive72qouZ/mrbhj640P0cJxHND76Yej+H6T8i+O0Y8tH54sje3Jbxyl9+L0/JZUSGkPLlUMwDKBPKKb/A6kroXEM+r/jkpK6xP1TQDg5139EKj2Nn+8NPEjToTMg7J8O9O/SA17bnlQ/SKeA/n1jPM7DSFJ8Wz+zv5+0ZHCaBvYPSJHmLrQDmpFHc88mUtn9Pv1ACnqXgfofkaKNf7rvn7FjgF7Cug8l+2ekPmzEYvdlQurlxuNY/hUpb2ztYUJJLOjN129Byg/YX5UpFQijpAfzSnWWVHpvnoPe7taQ2tM63GdzL9aSIoowO5HODzVt3lPX7TJNAaLBvFNfJAn0bc6SiqiO/ITRLk1mmtx5LV4iSXdROMzEaKbROVJUy3zxzt94i9ISCGKq4DIn9HOk4lzTzohBYHaupjMn5PFKUq4RqZoVb+bLfknNmVqzgm707XY9tVrQqfU2ByZTtUnhsfQfkcpeNf2dzr7e4PyiqV865TAZqHak0tJpbmk/SXx0QPJD3Q/DYNE1RZR2dHoRCyuoD6g0Jn1PeemtcUrYzoJJUeWUX08FJrmHgs3raGicLXOjwekVB+TlpjgNlEsLUtg3skqffGFRa7yEip5z09GClLaqYyUJatpinL7DX2mFsrEgdcOruQLLaTSyCoHKiite282CVIpV0tZg+WpYQU7gr7u6xeqzEXQPnjlvpFE2gh328+4EL5w5vAoiegrs8VyzukfdPdQt/hH4mYhriJA6ATV0mjYNAJmISM8jpArl/Wx1TKVS1Txig4qkgsiL3a+e9hWdcFwRRGFwFe3QfJVLEMReJC7RAqn0WF7yPDkelbXlsDyEwsFXVHzfVpJfykToM56U2j8MkPpZBNTMb/iv5kkFGKm9XPdy7DFS/AAKw/eEX+i244T6acJqKpByQTNow37qAWkbJxPmkTP7Qtvtl6KrIX0KhSFEhSWS8j7AC2vwyF6pokwA0RWXG0l56pzgpUj2Eq1AWXKk2S2RSjUe53I89qJyjKRW3pKxIC8zRm6ePY5is5K9lksk/klP9RDmvCQmmp7yqi40ciaXQZCbQPwtCbvKU0hV52zriadAMN+BUMgnO1c8KdT83RSCFr6DRVKOFKhltwdvkrlgidM/7ykn5zQDHMrie+pfddU0gD44fCdB0IMLVGZzZKPVBI7NJRBVwuarHozR+YQ66sO0wqinVsWjjcHUAijm3U4mNW0+fQWy0caXVuAyrM1Mo/NbF9Oe0kQqZgWyNHY9aoQ+LhTtZqxoDJYGah63KJpiTY8YIMV6dAiTEknMZvYaEi+SkXZYVIojRRbkLBA6zXFVUjEzCJmGI3UPw4yZ+3CgMNJEkqgpmnENjbHC19hVlJR3m+phs5Y4yZ8lpHS2IplgJF47ureTjmxuHiPlp9dyeustkBrmsC0p3Czre8Mn4ZM7K8sbV+U19XtSrqQ3XaHsPVhECnHW6OY8VZxATxF8J6ijdDVzLFry1HqLSKkBEoo9x1iWKYYQIPUhNqI/yH25jBTSU9TEHOZySwX7LBfqSfmt/N+mLsatO6qCt5IpGiRj617WxbEaE2/9XtDVCM2EzFtCyoUtOOcz+Ka6XfFe1HqV4GOssnBQHRakfNfbl0jx0Xk4YSXovg3RUwEY4syeoy2PkcpOoYwD7ntwCRNuBw/wlUz2QaMr0vbJCy5ihJGywlX0SKu7ai0NtNkyI8nbQYxGbkGqUXb5Cnnis/0HRkoQzbO8n7oBqRe08xiLwsWU/EAq5Q2oVgngrCeFbQsUvEWVpRypWOxHdTd8LakLmh/hiYscne49qUqaoOpu+EpSIb69Lu/mlxUhFSlaSo2ZryR1xxMRVM19jHZOoWb4HBWZXD186LZNoCruR+EAsZ/tSXGZC/OkvpT+ESlsGwYmVanDl2wtU6QleL8RSK94VJCgbz77CGCLQiXVC/r3h0oyiFWx3GTtk/aL41uPrpXapiphpyjPVulplJRNBEISVTAWNCnPnbTMfBShNLSn/LTTBU3FagFSwjKzkxZkZf6aG3muJlAi7hgDpKQFWSQlhpetSH0bQ4f0YUlKNPKUPUcrGx3z+SSxgBIyeCMvkGISySpSeFJKx5cCvYfDaA6rjsM6UmhqlxBJh/c2mOMAuFiyorIj5WMB1GQ2OsxcLNUZVTdoLf0+NONmCqRHaOSXOKNQ2EZO98DmOUIKTypiWl22K3lAsQTC9nAWgKnEo+txGAcnwlssX3VR474oI+VqS9hgHHR4i8MQpasGzVZg9FjwrItZRkPQrIc3mztnRWrprkrzHMOLFLHRAQFDUpr0ORxyIHa1IEikiiW7vkDIegrub0DKXyCkYHBfCbysIGWWcSwB2AbZYMOII7Wotk4mtcXWGkdKoz5xyFtrm2xCcqQgd24e0ibkJtu1fLgHtfRMathyY1uIQS3qqj9IARBILfvO7VMAxGid2dECCUIKQHXeYINWCiFau9WtmFZCtcLaBBzZCQJSYBEk4R5IwBklQVq0ktfBGGqmunc7gyVf0rdbJnW9N8jOVeFKnz6T1CUnpm2SM6xwktXFW/KeZhMFD9uTUrfjtYmC0Ao4zCnXq19JHtqcshwR7Q/71GV+BaAUP7qUSlCJ7ndR3R1a+vBYwGrwO4/hs3ARTaFJPoXTdJ28XTWc01kR550lsKOqSdM1WUXLuWOMCowMdjShGU39FjB7DFWG5tjMBDT1W+uu5exH+PyNBiac8CT5XZFkyHGCu+fvgieZm7Y3DtCUzuzm+p6qcPq28vyS4ccJ2MELX+mzIe5HpcOSFMmbuKRcBUL/+IGrP3gh1TTiwdYmovbmDldKIGqGhXYll8noiIpY04hxbSJOiuUBmgPfu1JX2R3mucKkiM6wOxriJTwpKX5ndexJOiBWshEjkmqnPlNBDuWcb5sDYrJ5PCSNRkTjz55tFkCt4m54kpWOzVE6eZbQy21YFNlKqGgwZ5gqyrpnc+hQ1aLHWzVpmUtt2FlxPTq5pyKtVGPb5nim8rKM/GxwKUr6EkQTDAxYkJo/8vtFWOkOIVaagyVNcbraH/k1ORzdV9m8amD+fM3BRhegWng4msO8+902r/2zJnjuX007+8LCY+RWpKyx+sC92dUEdlh9NYHZJQ52WH2Jg9l1F5ak1l53YXYxiAk2vBhkuELFCVPtFSrz4K5QmfU9jATd4LKZWWx52cyuaLa+lqdZfS3Pb15gxOGHrnri8IuXYv3m9WE/edHaT15J95OX9wn4mWsOefzkhZA/eXXmT14yKmHL61j/A/vMiK7TynvEAAAAAElFTkSuQmCC;" parent="1" vertex="1">
          <mxGeometry x="555" y="330" width="40" height="40" as="geometry" />
        </mxCell>
        <mxCell id="lYGBHWqPXG79mbcpfp-p-37" value="" style="shape=image;verticalLabelPosition=bottom;labelBackgroundColor=default;verticalAlign=top;aspect=fixed;imageAspect=0;image=data:image/png,iVBORw0KGgoAAAANSUhEUgAAAMwAAADACAMAAAB/Pny7AAAAeFBMVEX///8AccYAaMMAZcIAasSduuHj7/m71e0Ab8WLtN/3+v2hvOJWmNUAbMS1yecAY8EAYMF8ptlgmtUHeMhpn9cAW7/v9fskdceHrt2yzupxo9gpfMp9rNzF2O6tyOejxedDf8oAU7zR4vKVvOI/i9BAhc1IkNFZj9Bxg1kOAAAE10lEQVR4nO3df3eaPBQHcAIRAm0GWOWXKM7O7f2/wyc+lYRWQpGa5G693792jt3G5yTk3gBSbxWQfyTBykMMyCAGahADNYiBGsRADWKgBjFQgxioQQzUfCMMoz64ULYM41cRwFT+Ikz2wwOYHxliEGM8iEGMhSAGMRaCGMRYCGIQYyGTmC7VfZiCxNT6433y9j+1I7N3feBjOW11G+efkec9Z3wsftYUrg98LMlr5o8ecPrr8nHd5iNpI9eHrcup3axv03SujwuDwWAwGMxfkP3qyXJW5prddpsGVpNuW2OYjujvWxkJY+bax6LiVjWMV6ExjNBob8KZCG2NbqmKWLtrfXwCsxax0au2tixZm5i1eJclzY5l25i3eElrZaalNiyXmeYbX9MYNT7Hirf/oKgmnpN4kCV/O/cTc0tAfC1hRcWMahi7Wrz61dgAVfRgQ8NYe62VdVmZsnixz6TGXC8g5pi0BLE5DONEzjRqCkPlHCspM4khXI2NoRU6lRbCiVkMYeVVk5ipnrJW1iUnpjGES01uQJNthhbjGLXJMNALpO/GxQJGjE3dax7bCzD/g8UCRqwCV81jewFZ973ohRNbGDU2j6yeou6HvaVf921gxKL5cM3QIvezVjBqbML8MTNN1f1op+qxHYwYm756tg+5LuA3sofhA6IdzGAVaLW35udH3g6OhhZrmEH1bL5cPWWtjHZDiz3MYE1rvjg22abvx95bLGJU15k0X+oF0s3oHLOLUSt0ki/vBUTdl5aP+wqbmMFMW7xCMyotu5s9klUM4VzWm4XVkzW3tdIRZlg9l+ykGe8t+9txsY5R50244LwRc2yk7rvDDPq0/O6vfAXScnPuu8EMNXfWG7Umj46LCwzhO1k97+oFsnVvOfLxn3CAUZ3NXb2Asuw0FicYoYl6zexeIO0te63FDWZ43sxb05jfny/7F/31RDcYQnf92MyqN4xupuqLYwyh/KqZ0wswpixTeztXGEJLqflsbBifZ3GHGWiaT3bS/qw55hQjVgE5NpNrWjDX4hIzqJ5tpv1ZluZzLU4xQtOvaYdUc6A0e+pr5VlbX0Bg1Nh4p9/ZyLGy7HzyZlscY9TYeMnhJfuw/eQZ6fo7rhN1HwxG7T0FJ/rtU86u4ZSe5UdeRObcR3SNEZpO3e8OD+vjcSdyPK479bxVUrMZ4wIAQ9g2f/eYWBGKvHs6IYz1ix0wjGiIz9HEoxVF9Gtuaw0BIxq1XMcp9hWffdsdBEZ0+GV+GHkmMazz3R3XPWBgLhzypzqcBs++JOGh+lP6s858YJhLb8zK43MTd7VIFzfP55LdeW0NDuaybeGizJT/R/yR333RExLmKnrLor8LDfOVIAYxiEEMYhCDGMQgBjGIQQxiEIMYxCAGMYhBDGIumMCnVuMb/NJp92w95l4IkjiIMQwGg8FgMN88p3gsYw++wE+c+XykxwvSDmgrETa7l9ucL68QCnUvc2bb0+f/sIOcaDr6vuaMJl6t/cILzNeCJ6+6A95G3tPUO8MBptA+mp9OvX0eKGaje4xw8lX6UDG6kUGM2yAGMRaCGMRYCGIQYyGIgYpJlmGC1xBi1ou2AISNXRtwHf13Vr7RL6H+y4IYqEEM1CAGahADNYiBGsRADWKgBjFQgxioCVb/ATYstRBQBMRdAAAAAElFTkSuQmCC;" parent="1" vertex="1">
          <mxGeometry x="788.75" y="260" width="42.5" height="40" as="geometry" />
        </mxCell>
        <mxCell id="lYGBHWqPXG79mbcpfp-p-38" value="" style="shape=image;verticalLabelPosition=bottom;labelBackgroundColor=default;verticalAlign=top;aspect=fixed;imageAspect=0;image=data:image/png,iVBORw0KGgoAAAANSUhEUgAAAMwAAADACAMAAAB/Pny7AAAAulBMVEX///9BuIM0SV40Rl1CvYU5tn8zQVwwtHszRF0zPlvq9vD6/fxBtYI0TF8nsngzPFs/qX7e8eiN0LBAr4DY7uNCwYY8lHY2YGU5d2yk2b9Wvo87jHM4b2k1WmPN6ds1VmJ/y6c+oHqW07Zyx586hXFmw5iy3sk3aGfIz9HA5NIdOFGBjZe1vcFsfIfk5+mps7dIXmyOnKIIrm8AJ0YYPlIAMUkQL0sAGToyMFhZbnoAFDvR29ubqK1DVWi05+vfAAAJy0lEQVR4nNWd62LaOBCFLWxhYxsDAUICuUBCIPem6W7bbdP3f60FDOUm2+fY8iXf78RmGGk0Z0YShkikP23VMD4Mmq8m9ujWtJ/8SY3kPxH9JvZG8+2eteX+D/joJmALZIw1AV3z+ORxtnhPj9iTWxNLkzHCuqiD398zZ8wz6PPGBWILZoxo17CXPr68Mra8vmCOMWtd6GNixohpA3pr7fELMdC8L+Aga0yxTwka0710sO/wjXDN6xvmb2eAOQY1Rpxis6b2/SvsGu/rd+yZjVPwQ6LG+GAMqD3C4fkeHWQXvmZjrAkYeJwX0DXeCzhym1BYZowR/hkYA76Brrn/hj2vcYY6BjfGmqAx4B/MmH9BT1/CjsGNEdYUM2YRAxBb0NnvTGFbGGO6c9CaH8Cs8X6AtszbhDESt2YExoDHl2Rj4Nk/wm2RhDHCR12THJ7RsGzCYXllzEkA/zEcns23hIHmgWs/EZaFCE4Ml3CNdQZKKTNBpn1gj6mZZ7gtQrqGMSNc022CHyI+RUOTslqzSzhmtniye4f7pj8FkxozNjyjWrk+QvRliLxzl4++wl0jLB0K+h6dMZfEIAuuwtk4ZmLAT+xLjVHQsFb+SSwxwXj9vp4kBtoAXSAiFfQXULbW58Qgk73NV0XEANFFixtRChrVyrUWscQEs78DoUPEAAtX0BGOgbUysfbfdbYvmDF5wDU20Jy33ypbfr+B/37NrP2znTe4Yxv+R+sUdI1SQcNauX6KO8Yeu7vveBjivvHnaBVNEZ7v4UoZ7hjpP+x/YSfEQJvAVbQj13hopaw5wT+PHB+8p8e45gwtbhyF52d49hOOGfYOX3NDBDRUQTt/Dr4y7w/4j4RWFuLmaDC7hGsErKAPsmd49oMlzCVy6B4ZY8zw/7faYAyofd9zjQcWZOpzIluW58e2GAbhGmuEpiR7Cvo/NBUiwrIcqmwxevhagxc4f+2snPe/sP+pX+AfRNhHsz+EWTkn16jw3T4flQ/XxOy3x2pbDJcRNqiC3qZoH2gRg9HKgWL2h5wTwqYNuqbWXGfPr2j78pqRMcrZH0LEgP4UNMZ5Cp/9hP49ky2rZ38IoaAt/xL8pv+sUjS4rzxgZMxVjDEelT2jxY1liua9oEUMavbH1ud6+LciLHTlXCroZ7BIVZ8Ts19EhOWNa5gY4KPFjZdXWCv/9JnZn1A4ZRR0H+0/1T7QEmbrjKmUdeJtWci0d/hpwnLAiYBiOsQge39IsoVS0OIU3SIE0prg7z7QyhGuEUTCicYAjPoct0WKZMcsYsAN4ZoJKGwwnDb+ZvsG6mozClqgChqhjveVVVpZzTlui2iDVTSARVJGvDgmKduDaXKIkTZjnBH+1nUDA4FQ0KKrKwYstDLx2lmyFWu8W8I1p6DmSmChlfF3yltiJ9gVU3tGFXQ8daqvHJctHzFmqmg6YoDDaGU5ZmwxPEpB6zDmDH+hCMh9rZSCBguccbZcatLKapjW4DS7Z5A92GukZG0xrojsWYCNzmjHDIiXvVOzP+SWUdBZHcN0lm55W4wOkW9aF5nWGhPbg71C2omSTAUTA7qZxpmT6+xfwTQ58JMcCqATGGuUDQyEB2KxEWBbQIFZI15jI5JM6RqqipbaNa30fWXKNYSCFoOUKVqdCcsiRVhe490QA62d0jUtQpIFmFZWc0Up6FTWtIikTA7TO2bBObHYdNMIG7NJSDI7XVje0CFkmj9CC5w7wCcwxFKSpVovt8yIGADv4t7iEFpZElpZjUspaHaxMWuMY+IbGAhXhGvgfSgbqEpZhrD8F2KLEKugOa18kt0Ww/WZfSjUOHOYXSV+6rV/FyI8W21GpjkDJlvOOvtDPKYtMAXbfUuoExhxfWUGRkH7uGscpq+cRiurYbYIwQVOaruPfafLFsNjWoNzdPMC01d+z7zEbKGqaJhrzGb+WlmNR4TnPrZy1hmt7Gt0DKmgEdeYTeKBQVqtrIZR0H1EQVNa+VbLermFaXJYyQq6PmDOX2kLy2sYBW21k41hZn8WrayG6UFbSQq6RWz2g/vKDBoVNKeV9SRl+3SISroYxbqmRUgy7bM/hDlk042LAfA1EivycAy5TXASY4zGzX7pYapoMQoavatkScZKWRyUgm5GaIHitbKaDuOaqJMclFYeZqyUxXFOuCZCQVNaWX0CQxMedZJDtdhwtxXc5TT7Qx6YlVNV4GRKmMLObfaHEAVOlYI2r6nOUr62GC6joC+OXEOdwNCpldVQ2fPhSQ7qBMZ7nrM/hNsidGgM4xg7d8dwu7j9/VlDaWVgD3Z2PCJ77u+f5KDOKzOb/dLDHLTbuwvBGeAFmciDcZrhFPSOsGmUq5XVMCnazkmOBnMCI8+kbA9vlkZBm02iTm7PCnLMstFJyLSNgm4RSVlOWlkNs4vbDxV0nWlg5KSV1XgnzEmO1axxJvh/2CeFDbIlnIJuLGc/bkuOWlkNdRdC06QaGPL4toJ84RR0q8WcwCgsLP+FUtCXzB5s+GiMPjzqkA1zW0G+WlnNA24LRxHZ8hHESQ6C3LWymk4etghZ+OwPYXZwogRFh+UNXg7jTJYw+0MYBY1RiFZWQ4VnBLuMsLyho3nWBCXN/hUecdkrYkux2fIhLrPBPgkpCpRkKqh9KAlo3lXCwyjoBArVymo0pmhlO2bhGkZBx2GflO4Y8iRHNIVrZSUeoaDjjCmqhBkPc1VNtC3Jl8gUA3NNRSTFa2U11F0IagpqYCA8MMcFVBxeuFoqWV0j05xXzotOthSt9KRsH+YWIYUxZWnlCLLMGjmszOwPYa5JP6T0bPmIYeqBpvEEhi56qV1TqlaOIK2CDvLb7JceN61nKhWWN8xSVdHei2xf4lA3iW2w8bu9ioX5uZQNsReulonLx4CgClpZTY9N0WTChatl4jEnOZbYSReulkmPiwGV0cpqmH0oothdJTwu0+iU6S+RKQZCQcth5bLlAzzcNRqukcgb+KBdLgfjdIMessnxaIw+wOxZ+mV/UAhsB2fqu70KBpk12q6RyBukB/1e8SVmS/KPDQbjsj8jjJt0o2jFSpjxJFXRKqqV1STsQyl1VwlPvILO+2CcZmL3oZS8q4QnVkF/gqRsj5ifS0n8cZLqEdmDrrhWVhOVouVyjUTeRFxVk+HC1TJRKujqa2U1yh8clZ8tLG9QbBGqxnafVCi2CFVlVwnP0V3cqe/BrgJHV9V8ztm/Zt81snp9ZYb9HnQV+8oMuytnSUdj9LFzF4Jkf5ykemyzZ61XLpbEJgZ8mkpZHBsFXdm+MsP6JrGg+g0MhJWClv5n08pqVgo6KO62gnxZKOhPqZXVzAJN92BXAXf8ObWymqtiwvL/yRfhw+wOMWgAAAAASUVORK5CYII=;" parent="1" vertex="1">
          <mxGeometry x="264.06" y="530" width="31.88" height="30" as="geometry" />
        </mxCell>
        <mxCell id="lYGBHWqPXG79mbcpfp-p-39" value="" style="shape=image;verticalLabelPosition=bottom;labelBackgroundColor=default;verticalAlign=top;aspect=fixed;imageAspect=0;image=data:image/png,iVBORw0KGgoAAAANSUhEUgAAAMwAAADACAMAAAB/Pny7AAAAYFBMVEX///8ArtkArNgAqtcAp9YAodPT7vdFt9274/Hs9/v1+/0/ud6DzOcApdUYqdf5/f6b0unc8PjH6PSw4PDl9PqT1Oqn2e1YvN+L0el2yeU0sttIvd9mweEjs9tyw+Kd1+w9c1p1AAAGzElEQVR4nO2b6ZarrBKGm4I420acjcT7v8sPY7qjDCo5pvdaZ9Wz9790RV4oqAHz9YUgCIIgCIIgCIIgCIIgCIIgCIIgCIIgCIIgCIIgCIIgCIIgCIIgCPJ/RZbzYByrqhoL7kXvfUWWnTyod8j4mNwbXxCgFED4zdDVpYN9yeu2u88kY+Bieja8a3xCpQxCAOT/CUr8e3DIuiykeU+mL3gApPeHKv/wmM1Eoy8FyH8Kk6JmV05YiV4u58p+mg/S34q/GP2KqJUj0YT86mH+psd4N/ZYT7OtOLayZxGNlFmEPKGX0bqnA5HSLVu4xH+3eTIvTrelTKS30GjMm9S2oi85bHzvWHQmrLcn9gcmDJs5r+gRY2DDn5wE+XBgWeYRCU81Dpod93xNRcM/H3t4fGhZZjX+Wk1WwHFj6n/8HAjE8eHIAd2WzhJdXWwJ7flHpWRBv7t51wPqXqdAmDhpmdRobnomXI+R2wD8hsAoscYlu5oPbhuPOM7tdAg8HS27OmuZ3PRjWkJ3LfJUaufZrY8eYyvST+U2mW3vzzmmzQPTx9Jw2zw8klSrMXy7OloWbvP8vsQcXyjpe1/SE/OIaCftc2EerczQZuOemHM1SBzF1LEdIcTzeOUX48NE0/Ipk4q8+u4btgXQNPqK7iYnA9o3XZHLxCUredv0JjnQu6Vp/ELtAKHt469C09wC6YpFEuVd/ZU3yYqN+INcmcKwqFLKyjgL7oaQCqRy0VIKIkxz/sMwP7AzTDprCiUf5Pef8QBlVAxtPS1bbvhagE7NV6KxN6gZXFLOMtjm6WSGaJkmejIY3tOnkjgpgnIeriEhoyIwJNVBo6kB//Q8IBr0itKcpodNylLR1Tz/HSw3aInNwZ37uprxbDFFr42HWaqvsh2lkOVnvjYR1Fp91dqRSJOT04Dsrk4YsKvtGWrbiOuLSqzFSqYlcDCcUXZmURQ9x8VjdUCsM9aRJvR9wDYSSK6uI/X30s0qvRxCzNviqnr9/hN+8TQPTastx9GWZq+/ERjOQBPP1ChXJxfoeldOi2jhq1W/1FCALimUgAZQb2opu0cOcYDZXQN1V0Kzcvp8TOxoC0PtfZvH4DQ/2xYTegd5bj0t44V2/fiU2TIIprtAvBM41CjAtsU4opeI64K2cipUaLIT0tVc41wxudrDAH/pKNqO2mFvbJqY65liuDocGJYf104Ls5+enLMyWlrGZ4fQ0hFYZrKOC7MfAzvl+94S00K/BuL5zArUBB6WxWzh5mT0vpedDOsvhJ3TzEjuU1CYxWT6YbYIY+XgKGavdIy0lX6jD5Cwb4VnypKNmpiF2/OjzdqjYrgSmECcWQNEWjKzEBM6Lsy+mFGJ0LQ5sxUY6SvzWnjPtftE79thRkvQ6f1wSnsAw575TQCyyrUdRpvtu4pA7TXQdvPvXSm0nLn5FdNemMKOGOg3k+BIb0ifmgDoRzN53ViW9XVNbemQvWZiswDganMF/HNvnTjTxreImtmKr3IvH9gshUrtXKaD/a/fwdMmmzbWML6fD1Brwf0VqdFfeuXJ3eay0at4W8tEG40OEOvStFpTc53TnkCUGHa1eRu3eqdIdzsaWw7bztCTOr/RZHiI8Y7OMLPC0E63qIn1x0B/thZ5xBh6s0RTUw76SUEDQ1+XUKHtuSwwFKWEnX8/E5p2AmVVvvTnsugNCziExmtQyopyaRx6hon40M1ZbbrCAyZqXk6ttSwqeXEzzCzIrRU1uulkHNde+chsstALBvOrDvCJ104sBRgwGJJrXV+TgZgmFqCVwx0tb/xMxnVR1NdOMPNNE/3MJeBou12l9JHDmA9keISjSO9TPz+emjfUZiw3jOut2UFCvfl9gOeJZ7pqOgA7pclsorC8HrbF94+XOLZvZs6tY9a4FmGEpL/xLnxDDD3/kulF5vAOz6ylexmbL3c3tWxXCv8r4cXJ0ZZa3LfNp18C+vK+HdQopX52ddpze+XoCfCDFyFTSqV2+iOHV2eAOt0wv6vGPzS/AH6gJe5RffDtLqD9h+KLQj4cUEPhbjxUA/0m2WRNh796Ezisdl1NJl2WcsVLrMH+tSzNeGZnaZuI37dGJBOu0R7rwiDefA1YZp/j374+P43I8gYSTcnobZa5eS0sxnJJ07jO//zXGiFvmDYkqYTdgnJvMFkZ3JiWYQNlKUm88J/88CQrxzi9TPnu9IsAmfimF9rtK/kxrmfj6Z256dozvaRx5UX/RMkPedEOsRDxbUgK7hoYpPEtFoSIW1cF/+ZnJgiCIAiCIAiCIAiCIAiCIAiCIAiCIAiCIAiCIAiCIAiCIAiC/A3/AdqvYHG/kKDgAAAAAElFTkSuQmCC;" parent="1" vertex="1">
          <mxGeometry x="594.06" y="520" width="31.88" height="30" as="geometry" />
        </mxCell>
        <mxCell id="lYGBHWqPXG79mbcpfp-p-40" value="" style="shape=image;verticalLabelPosition=bottom;labelBackgroundColor=default;verticalAlign=top;aspect=fixed;imageAspect=0;image=data:image/png,iVBORw0KGgoAAAANSUhEUgAAAMwAAADACAMAAAB/Pny7AAAA0lBMVEX///9srEhZljbCv79gnjy/vLxcmTn6+vq5trbT0dFnpkPIxcXq6elqq0X19fXb2dk3NztFRUhRkilmqT9VlDAmJitYoyhhpzfj4uJKSk0+PkGPj5FHjRb0+PJLjx7Ny8ujo6QXFx4wMDQAAADk7uC51axfX2GXl5iCgoRXV1loaGodHSPV5s41hQBknEaszp1toVKvyaPE27l2pl2Hum6UwX+ctY5rpkufv5CGsHJInACexot6s1u/07eRtn+CsGuMrHylt5quuKa1ubDU29B1dXcbtLkIAAAJwElEQVR4nO2ca2OiSBaGFZYADSkKxYRLFKQNgprLpDNJZ3u205fx//+lLSgwqAWVRGY5ZH2/hBCN5+Fc6lRR2Osd9X+t8bhtC5rT+GbVtgnNafb8h9y2DY1p9SjM2rahKY1vzi++fhTXrE4/nVx8ENes+gRm8NS2GY1odX7a/3QiXH0E19z9u99PYSyrbUsO12XKksIIF1/btuVAjW/O+gWMcNHtkZPU5NMXGEvoMs34ZkhZKIwwuO4uzfjmNGfJYYTBbVdp5MsNSwFDaDpaoO9Oh/1dmK7SzIYvLC8wwuBLB6c28vC0z4IRJl/aNu3t6pf8sgUjXHSuS/t21q+CEa7+aNu6t2m1zbINI1x1qkDPTvt1MJbVoZI2/nNYCyNYHSpppdGSDSNYnemgV3/tOmYf5uQ/bVv5Oo2/7bHswZCxsxtpc9ffDTIGjDD52oW0Gf95vsfCgLEmXajPd2f7LAyYTrScs/3sZ8OQRgD8uuAlyzFMGGEA3TUzRvZXwUy+t20tRzdMx7BhoPdo4yHTMRUwg9u27a1VhWMqYIC75oztmCoYC7JrmGNMDYwAeeTc65Z5MIBds2I0MhyYE7Cu2ZuTcWEEsPegxuwBsxbGgtqhXVahEP2rAgbsnPO+MspqYAbPIOc1s78qo6zOMzAn0HVRVg1DppxtG84SY+r/GhiQqwGzupSpgREmAOOMtY7xOhiASxs3lcM/BwbgUMNclHkVjHABLs7qU6YWBl6c3VV2zFwY6xpanF3WRlktDLitG+P6/OfAAFtBm1W3/3yYwROspGEvZL4SRhjAgqmeZL4GBtjGut07sm+EuWvb/rJkTjHrV800qWB1zrxixoGBtUjDuvX3BhjhClJt5jQzfBhI5YxXmbkwkMrZjJMyPBhQjfOMU5m5MJD2Bh0KA+omGm/M5MGAWqU9FMaCtD3wYBhIoyYXpr43EyyhbYKSuAWABzNom6CkjwXDGzR5MJAerqnYmPF6mJO2CUri9mY8mOu2CUrids08GEileX+/7BthIHUA428HLWjA6s3GvDUAHgyoRYDKjSavgwE1nzlwqQnY9qbDFgFhTZtZu8zfBANpdYY70HBgBqBgeAtnnIXz57bt35J8yP0ZYJW5aj/zK2FgVWYy0BwSZrCKGbec1cJY15BWZ3vc+4C1MJPvwGDev0ODpAyoe02pLt+9D0CYAEuZA3Y1CdYzOJj37jeDtw0gVe0erTqYAaiWmWpcV5xrYAYAo6w+zmpgQN2b2ahu8awaxgL6LSH374GBN2JS1aw413gGZJQRVZeA6h3nEHcCZ6p2TeeeBejVPA5QBQNw6+xGs/OKGlAJA9cx1Y8DVsCAm8lsafbIDrRPbJgJ1FJGVbFOy360yTqB12KWVbHznO0ZWKuyDK2Yu7WZMBNId2XYYt7dYMFYF7CDLBXzLtotI2fgTf0ZWu0/fPb4fL0fZEA7zB3tPeRwevu0B9OF79DIdLMTaMP7H9fWblUGtiRbqfH9+Q7Mww6MNQC4ilGh2fZ3tQ2ff95uwwy6kTBU25OB4dOvbZiOfTPg1h3b4ZP0pQxjnXQk+Qtl3wac6/yHuAUD7VEmvkq3n84ftB8llquuFLIXyTebmdrpg/ZQ6mK6x1L6Ht3Tx5/ib8HaFOW2DXuXCprhl1+ilifNQOgmy4Zm+PxbFH8OMpbrLsYY1fjunIyew+8iURpnk85+x3GmFaEZfk1hfl1Yk6eOjS+7WvXPSP6neoD3EPObNbt//J3BiH93noUkzt8ShWnbkEakZzCK3rYdjQhpGUzbZjQjWU1d47dtRkMyCIxktG1FQ7IJjGK3bUVD0rUPk/+kAviSqKC2rWhIiFSAD+MZ+SPBpOXsCANSRxioOsJAlS1JH6ad6SFb/TCNJhHSP0o7c9RRRx3FllwW83R7tr1VSC3JsIsKjgzVIMpPdoUHGYZI+oPUdNWXFFGlnYJuqJIkiSo5qUiS0Z1ByhBFJb32MtIJgWhTP8iqKKnZyXSdqiu+SRdviuVO2ZY2K2ykoVPzA1HrTJtagqELhjTSNjC9zakOaAumR4LKz4LK2MBonYXRFVHMguoFRpK0hiqAjJAfyT177jgB+ZcoSPBaffmzMU9G5tovXqvPyYuUKFxsXiLbnjlyPAPJOn2VrMUOjoKXa70NIxdZs4FBSlPzB6Qky9EUBdhx3GWsa6brmHipFXbE4TrwkpD8hfymLsLpcu4noYtxGBSvGHl+EIVL7Czj1FYjwV4QO6NQKSrUNkwvrWJyDoOI9OYW3WU7SEx3PbeRujbDdSTZ5AROaHWxF2F6PwzF7iil0ecL00yiWAnWrhtRC6IwNdSITBzHqTNE7KQhYyzcZUGwA5NCUBiSPmQIUiQfNTfOzM1RFiBG5JrZicCdZgGA5tMgu7woxqGU0bkuDbA1NoP0p7ZMEP0fU2ppRN/aUyPX1Xkwvm3bhqpJkt9YaQ7MKY2IGCe5IaPs0w1nlMeb7+Is0HQn9DLj7SWel9+iOMvMngC7+VX23JFSBbOVMyTXSAVoiqYEQz1jr6kd0sjNM99e48Quw6AchpzPfpeczDMoDhc5jOLgmAlDcsYuw5B3NXivah9mMQrIDzkIzfzjdA/jbZgRhZljJ4u/gHqIQBcwaoQXLBhZ3CvN6aHfUNpsYLw9GJx7Bs0rYPTP5oKYhhZTO4dxcquMBRsGKbnhJRj9H4QxKAwJs1ApYMKdMAuxl/1F+Yyj+dxJ8mY4dpcFTBR6LBhfyof7MoxCa8I/AUNyJoNRMU17OpogJgx5cRjFWmHKHBf8fjItYrQMk9rd24UpakKTMKWcUSgCHtHPM5IwO9BNvIHJwoykQFLemqEl7oj+swBHOaGtvdwkRGRG80KQH8rNOabnmbSsygQm+1Ay0gfZgW9iJ51qoGBJBxwbYy97rR7mVIup6dk6UVGRMV7TURPnDY1M5jOihtIJMjIUMXeBLJP2UrOzs6KoNpQxRmCG4VpCshqbeLRWekhbhDicZ6mvJGEYaKKXtW3kCsYj7HjkKorz/CD1Jl5OQyfyROoyz1kmiqosInrZZZuMielAr/m+JmqF1chIZ5gk71UyZmp2Q36RlbXneaQVQUGcHcj6PDugKaHO11GymNPLiZx1HMcL4pJkEcfrReok2cNu4pDrgUceNUmJ11G0DnKr5XSyv1kC2DhAz0/56dn/3TRTt0smoEzkID3KIgsFC9LTKwHxkONv3vLK8RzY0oweRzQ1kDJyur4XaL2ZLfRGTsd3nBnY3QwQS6ehktSWbOzm3WTP+Nz1KOtF2KVFzP8ctGxKA0pwOHUW0XKp8l8LXyIZiJK447l/1FFHHXXUUb3/AgO76ennLiNsAAAAAElFTkSuQmCC;" parent="1" vertex="1">
          <mxGeometry x="785" y="512.94" width="50" height="47.06" as="geometry" />
        </mxCell>
        <mxCell id="lYGBHWqPXG79mbcpfp-p-41" value="" style="shape=image;verticalLabelPosition=bottom;labelBackgroundColor=default;verticalAlign=top;aspect=fixed;imageAspect=0;image=data:image/jpeg,/9j/4AAQSkZJRgABAQAAAQABAAD/2wCEAAkGBxIQEhMTBxIVFRIWFxcYGRgYFh0VGBYZHx4XHyAYHh4aHSggGBslHxUVITEhJSkrLi4uFx8zODMtNygtLisBCgoKDQUGDg8FGisZExkrKysrKysrKysrKysrKysrKysrKysrKysrKysrKysrKysrKysrKysrKysrKysrKysrK//AABEIAMgAyAMBIgACEQEDEQH/xAAcAAEAAwADAQEAAAAAAAAAAAAABQYHAQIEAwj/xABOEAABAgMGAgQGDQkHBQEAAAABAgMABBEFBgcSITETQSJRYYEUMkJxc7IVFzQ1UlVykZKho9LTCBYzU4KTscLjIyRGg8HD0UNjlKLhGP/EABQBAQAAAAAAAAAAAAAAAAAAAAD/xAAVEQEBAAAAAAAAAAAAAAAAAAAAEf/aAAwDAQACEQMRAD8A3GEIQCEIQCEIQCEIQCEcVjmAQhCAQjiscwCEIQCEcVjmAQhCAQhCAQhCAQhCAQhCAQhCAQhCARS8Ub0qs6VBkf07quG3zy6VKqcyBsOsiLpGfYx2A7NyqHLNBU7Lr4mUakpIoqg5kUBpzoYCAlcKJh9AetifeE0oZtKqCFHWhUTUkc6U7IlMM7wTSZiYsy8is7zFShwmpUkFNQT5WikKBOtCQdo4szGKSLAVaQcQ+E9JCUZgVDfKrah7aUiCwytRE/bE1OTikocW2eG1XpFJyDQ88qUCvnrtAbVGe4q3mflUsSth6TU0rKlQ3SmoT0epRKwK8tTGhRmWL9lPhUpaNlpK1yi6qTSpCcwUFU6gRQ9hrygI72on8nE9kXfDPGzdLLm6s2bNvz+qJzCu8z8yl+Vt2pmpVWVSj4yk1KelTdQKCK89DHn9uOz+Bnyu8Wn6LL5XVn8Wlef1co6YQ2U+VTdo2okoXNrqlOxKcylFVOQJIA7BXnAabGZ4l3gmlTEvZl2lZHn6FbgNClJKqAHyRRC1EjWgAG8aZGK4m2qiQtiVnJNSVuIbAcar0gkZxqeWZLhp8mu0B6ZrCiYYQXrGn3jNpGbWqQtQ1oFA1BPKte2LbhdeldoypM/TjtK4bnLNpUKpyJG46wYhrTxikgwVWaHVvkdFtSCkBR2zK2oOytY9mDtgOykoty0gUuzC+JlOhCaUTUciak05VEBoMIQgEIQgEIQgEIQgEfNxwJBKzQAEk7AAbmPpEdeCVU9KzLUvotxlxCflKSQPrMBma75WrarzibjoQ3LtmnFWE1V1ElVQK7hIBNN49Fi32npObbk79tpHFICHkgAVJoKlPRUmtBXQgqFRHGCduS6JVUpMqS1MNurUUrISVAkaiu5FMpG4pHgxhtFueek5Kx1JdmOKalBzBGYABNRz8o9QRAbLCMo9rK0fjl353PxYe1laPxy79r+LAavHEZT7WVo/HLv2v4sDhnaPxy787v4sBoMxdyTcXxJmVYW5vmU0kqJ6yaaxUsQrh+E5Zu7x4U83QjL0OLl2FeShyPcdNoq5t8H5B/2NvsSFggNPqNQQToFKO6TyVy2MauICh4d37E8DL2sOHPN1CkkZeJl0Kkg7Ec08t9tr7GaYp3SQttVo2WrgzUuOIVJ04iUebZwcj3Hss2HttuT0gy/PAcRWYKKdASlRTmpyrStICieANfnRk4aMnBzZciaZuHXNSlK11rGwRlH+Kv8AI/2ouWIVtuSMg8/IgcROUJrqAVKCc1OdK1pAQ+Il+hIgS9kjiTzlAlIGfh5tApQG6jyRz3Om/wAcPbh+DZpu8J4s85Ukq6XDzbivNR5nuGm/nwsuklDabRtRXGmpgcQKUc2QL6q+WeZ7hGlwETL3ck218SWlWEOb5ktJCgesGmkSsZTfG+D88/7G3JJKyaOvpNAkA6hKhskc1c9hAYZ2j8cu/O7+LAavCMo9rK0fjl37X8WHtZWj8cu/a/iwGrxlVt32n5ybck7iNpPCJC3lAEVBoaFXRSmtQDqSUmgjr7WVo/HLvzufix4sH7RbkXpyStlSWpjiihWcoXlBBTU8/KHWFwH2RfO1bKebTfhCHJdw04qAmqesgpoDTcpIBptGtNuBQBQaggEHcEHYxluNluS65VMpLKS7MOOoUEoIUUgE6mmxNcoG5rGi3fllMysu3MarbZbQr5SUgH6xASMIQgEIQgKZefDWQn1l2ZQtt0+MppQTnPWoEEE9tKx6LqXCkrNOezkFTtCOI4cywDuBoAkeYRa4QCEIQCEIyO9NtTdrTq7NuyvhMtVDzoJFaGiqka5QeiAPGNeUBab+WRI2g0WrRfZbeTUtrK0BTau0E6pPMf6xU7hX4XJu+x16nEnLRLT4WFop5KVLG6TyUdtjEnK4L2eEjwtx9xfNWZKAT5gnT5zH3GDVm8jMfvR92Alb9WxLLs6cSzMMqUWHAAHEkk5dgAYi8JLVl27MYTNPtIVmdNFOJSRVxfImOvtM2Z/3/wB6Puw9pmzOfH/ej7sBC+yDP5z8Xit8PgePnTlrw6UzVpE5i3asu5Zj6ZV9paszRolxKiaOI5Ax19pmzOuY83FFPVh7TNmcuP8AvR92Alri2xLIs6TS9MMpUGGwQXEgg5diCYp9/b8Lm3fY66ziRmJS6+VhCaeUlKydEjmob7CJr2mbM/7/AO9H3Y5ODVm8zMfvR92Akrh2RI2e0GrOfZceVQuLC0FTiuwA6JHIf6xc4zOawXs8pPgjj7a+SsyVgHzFOvziI+61tTdkzqLNvMsusu0DDpJNKmidTrlJ6JB8U05QGuQhCARVL1XCkrSOe0UFLtAOI2cqyBsDoQoecRa4QFMuxhrISDgdlkKcdGqVOkKyHrSAAAe2lYucIQCEIQCPm64Eglw0ABJJ0AA3MfSI68Eqp6VmGmNFuMuoT8pSSB9ZgMx/O+1rWecTclKGpds04qwmquokqBAruEgEgbmPTY99J+Rm25S/aE0dICHkgAVJoCSnRSakA6AiorHGC1vy7cqqUnFJamG3FkpWQgrBI2ruQRlI3FBHhxdtJqfek5KxlJdf4pqUEKCCoBITmHPyj1BEBslY5jJl4Wz1Dkth6tD+sAJ7TxY+txr5vSz3sbfSqXkkJbdUahfwUqVzr5Kuex1gNSWdNIyrAZALU64rx1Pip5kZa/xWT3xqjmx8xjLsAvc836ceoIDVIQhAIR4bXtBEsw6/M+I0hSz5kitP9IymUx4YWtCXZNaEqUlJVxUkJBIBNMutN4DZIR1BrtHaAQit37vQLKlfCXGy6M6UZQoJPSrrUg9UeXD2+qbYadcZZU0G1hFCoLrVNa6AdcBboyjHpIDUk4nx0vmh5gZc38UD5o1eMrx+9zynpz6hgNSQdI7R1RsPMIy2/V83pl72NuXVTyiUuOpNAj4SUq5U8pXLYawGp1jKrYvpPz025KXFQmjRIW8oAioNCQVaJTWoGhJymkdEYXT1Bnth6tBUf2hAPYeLHjwitJqQenJK2lJaf4ooVkJC8oIKann5Q6wuA+3532tZLzab7JQ7LuGnFQE1T1kFAAJG5SQCRWhjW2nAoAtmoIBBGoIOxjLMabel3JZMpJqS7MOOoISghZSATvTYknKBuamNGu/KqZlZdp/VbbLSFfKSkA/WICRhCEAhCOqlUGsBULzYcSE+suzaFIdPjKaUEFR61AggntpWPRde4slZxKrNQS4RTiLOZdOobBI8wEVO0MRpyafWzcSU46W93VAlJ7QKgAdRJqeqPVdrER/wpMnfKW8GfWQEKFQlSjsCCTvsFAkV00gNLiqX7uYzajOVyiX0V4btNUn4KutB5jvGsWqsKwGVXIvk9LOmzL59F5PRbcUdFjyUqVzr5Kuex1jtgF7nm/Tj1BFov3c5m1GaPUQ+gHhu01Sfgq60HmO8RVsAB/dpqv69PqJgNVhCEBl2P9ucCQTLoPSmVhJHPhoopX15B3xjNt3XLFmSM6QQZhbwV2AEcP5whwxYsYp9Vo2wmVk9eGUS6ByLij0j9JdP2I1nEG6qXLFXKyY1l2kKa66tD+JSFDvgPdhZbfhtmy7izVxKeEvrzI6NT5xlPfFujBPyc7byuzEm6dFpDqPlJ6Kx3goP7Eb3AZtj/wC9R9O1/NER+Td7kmvTp9QRL4/+9R9O1/NER+Td7kmvTp9QQGwRleP3ueU9OfUMapGU4/j+7StP16vUVAL73yemXRZlzKreV0XHEmgQPKSlXKnlK5bDWLXcS5jNls5W6KfXQuO01Ufgp6kDkO86xxcS57Nls0Zot9YHEdpqo/BT1IHId5i11gOYq16LiyVokKtJBDgFOIg5V06juFDzgxaKxmt5cQ3vClSdzZbwl9BIWo1KUqG4ABG2xUSBXTWAmrs4cSEgsOyiFLdHirdUFlB60gAAHtpWLjGVWfiNOSr6Gb9SnAS5s6kEJHaRUgjXWhqOqNTCq7QHaEIQCIy8jS1ykymU/SKZdSnrzFJApEnCAzDAmbZMkppqgfS4pTidlEGmVVOYpp2UiOxvdQ65JS8jRU5xagJ1UgKoEg9VVUI+QTE9eTCqXmXi/Zzy5V1RJVk1SSdyBUFJPOhoeqPTdDDWWs9zjrWt+Y1o45Sia7lKevtJJgIL82LyfGbf0v6MPzYvJ8Zt/S/oxq0IDKDdm8lNbTb+l/RjtgB7mmq/rx6giXxGv14FSWsYcSecokJAzcLNsSBus8k9503iMAPc01m344+fImA1WI63rTTKS70w/wCK02pZ7aCoHeaDviRjKfyg7b4MkiWaPTmF6+jboo/+2T64DOsIeG/apm7cebQG87xLiwgKdWaClTrqsnuj9BqvLInQzkt+/R/zGEXCwjNpyiZqYmSyFqVlTws9Qk0zVKhuQfmixf8A5+R8YK/8cfiQFAZm0WRbeeSWlTLUxUKQoKBZXuARoegv5xH6pQoEVTqOXmj8uYl4eGxwwpDxebdziuTJlUmhpSp3B+oxueElueG2ZLqWarbHBX11RoCfOnIe+Aicf/eo+na/miI/Ju9yTXp0+oIl8f8A3qPp2v5oiPybvck16dPqCA2CMpx/9zStP159Qxq0ZTj+P7tK5d+Or58ioDhN2byU0tNv6X9GOfzYvJ8Zt/S/oxMYc368MrK2yOHPN1BSRl4uXcgHZY5p7xptfoDKfzYvJ8Zt/S/ox5cEHUNOTsvPUTOcWpCtFLCahQHXRVSflgxsEUa9+G0taDnHbWtiY0q4ihCqbFSevtBBgInHabZEklp2hfU4lTad1ACuZVOQoadpMXy7bS0Sksmb/SJZaSrrzBIBrFPu5hVLyzwftF5cy6kgpz6JBGxIqSojlU07I0OAQhCAQhEZeVSxKTJla8Tgu5ab5sqqU7YCkW9iklD5l7tyy5txJIUU1y1G4TlBK6bV0Hnj1XSxKam3vBrUYVKzJ0CVk5VH4NSAQrqBGvIx4cCG2fAVql6cYuniHyqUGQHsy7dtYjsckoDkiqT0nOIctPGKQRlr+3SnnMBr8UHEW/fgVJaxRxJ5ygSkDNws2xI5rPJPedN4VUzeog/2DA3FRwqjtH9pEzh3cPwMmatw8SecqSonNws24B5rPNXcNNw6YfXE8DCpq3DxJ5zMoknPwsw1APNZ5q7hpvG4Be55v049QRqS9j5jGW4Be55v049QQGqR+YsZLUVP2spmUqoNFEugDmuvS7866d0fp2KTI4YWczMJmmm3C8lziVU4pQK61zEHfU1gLJd6zEykszLs+K02lHnIGp7zUxJQhAUnF6xPDLMfCBVbQ4yPOjVQ70lYjNvydbcyPvyjp0dSHEfKRooDzpNf2I3xaAoELFQQQR1gxTLGwxs6TfRMWahxLrZJSeKogVBBFOYoSKQEZj/71H07X80RH5N3uSa9On1BGkXmu8xaLPAtVKlN5kqoFFJqNtR54+N1LqStmIW3YyVJStQUrMoqqaU3PZAT0ZXj97nlPTn1DGqRleP3ueU9OfUMBJYg3E8MCZqwzw55vKoEHJxco0BPJY5K7jpt9MOr9+G1lraHDnm6hSSMvFy7kDksc09402viNh5hFCxEuH4YRNWGeHPN0IUDl4uXYE8ljkruOmwX+M/vZiU3KPeDWUwqamQaFKCcqDvlJAJKusAaczEOmZvUABwWDtqeFU9p/tI+GBqUFyeXOaznEGbN4wSSc1P2618wgJSwcU0rfEveSWXKOKICSquWp2CswBRXauo80aXGY47ts+AoU/TjB0Bs+VQg5wOym/bSL3dpSzKSxmq8TgtZq75sqa17YCThCEAjgxzCAy+18MnW31zFzptUqpZOZHSCRXU5SnlXySDTlHruthuWZgTl5JlU1Mg1TWpSlQ2VVRqojlsB1RosIBCEIDqoRlGBrobM/LP6PIeCik6Ggqg/MUfWI1mMzvtcuZRNeyNzVZZn/qN6AOGlCRXQ1G6TvSu8BpkIyZGJtotDLaVkOlwblIcSk93DV/Ex8HcZnUKyPWapLmlEqcKVa7dEt11gNghGSu4tTSAVO2S8lI1JKlpAHWSWtI4l8XZhxIVLWU6tJrqla1pNOohqkBrcIyL24X8/D9i3OJvkzqz03rl4Vfqju/i7MNpKpmynUJFNVLUhIr1ktUgRrUIyZrFqZWApmyXlJOoIUtQI6wQ1rHwaxmdWrIzZq1L1qkOFShTfohuukBsEZNjm8HPAZVjV5b2YJ3NDRA+cr+owXibaLoy2bZDocOxUHFJHdw0/xEe25Ny5lU0bRvkrNM/9NvQhs0oCaaCg2SNq13gNKSI7QhAIzq9OG5emDOXbmVSsyTVVKhKlHdVUmqSee4PVGiwgMvsjDJ1x9ExfGbVNKQQUo6RSaajMVcq+SAK8408RzCAQhCAQhEZeQrEpM+CfpOC7lpvmyGlO+Ao1uYo0fVL3XlVzbiSQpSc2Wo3yhKSVAHSug88ey6eJSJp/wW2GFSsydEpUTlWfg6gFCuoEa8jHjwHSz4Csy9ONxVcTrpQZK9mXbviMxzCA5ImT92cQ5aeMU1GWv7dKd8Br8IyniXq+BL/ZfehxL1/Al/svvQGrQjKeJev4Ev8AZfejgrvX8CX+y/5gJ3EO/SbPSGbOHEnXKBCAMwRXQKUBvrsnc+aPHh7cVTKjO3lJcnXCVdLpcKvb+s7RoNhHbD64a5dapy8p4k8sk6nOG67muxWesaAaCNEgK9iB72zvoHPViJwb96pf5Tvrriu3+vY5POmy7pAOLcqh5wapA8pIOwA8pXcNYvlzbCFnyjUsF5ygElVKVUolRoOQqdICi/4q/wAj/aiwYy+9Ux8pr10RX/8AFX+R/tRer5WELQlHZYryFYBCqVopJChUcxUawHzw/wDe2S9A36sVrEK4qnlCdu0S3OtnN0ejxadv6ztOh2MRlwb2OSLosu9oDa0UQy4dEkeSknYg+SruOsazAUXDy/SbQSWbRHDnW6haCMoXTQqSDtrunceaL1Gd4g3DXMLTOXaPDnkEHQ5A5TY12Cx1nQjQxGBd6/gS/wBl/wAwGrwjKeJev4Ev9l96HEvX8CX+y+9AatGf3sxKRKv+C2OwqamRopKScqD8HQErV1gDTmYieJer4Ev9l96PPgaEFyeM37s4gzV8YJqc1P2617oCSsPFGr6Ze9EquUcUQEqVmy1OgzBQBAJ0rqPNGmRmWO6WfAUGYpxuKOF10oc9OzLv20i83bKzKSxm/wBJwWs1d82QVr3wEpCEIBCEIDMLZwwcS+uYuhNqlFrqVI6QTUmpylJqBXySCOqPXdTDXgTAm7wzKpqZBqkmuVJ5K6RJURy2A6o0SEAhCEAj5OOBIJcIAAJJOgAG5Jj6xmWOloONyrDEucqZh3Ks1pVKRXKewkgn5MBKzOKlltuZOOVa6qQ2taPpAa+cViu3xvw5PrTZ9xTnU6Om8kkAJI1CVeQAPGVy2GsW6zLgWcywGXJZpzogKWtAUtZpqrNuO6lIpeH8qLPtudkpU5mi3mBNCUgZFJBPYHCD10EBdri3NZstnKz0nlULjtKFR6h1IHId51i1QjPcVbzvyqWJWw9JqaVlSoeMlNQno12USsCvLUwEV/iv/I/2o1eMf9qB7LxfZBzw3fNrTN1Z65+zN9UT2FV535pL8rbms1KqyqUfGUmpT0qbqBQRXnoYCYv1c1m1Gcr3ReTUtu0qUnqPWg8x3jWKfc6/DkgtVn36ORTQ6DyiSCkDQKV5YI8VXPY6xrUY9iDKi0LbkpKaOVoN5iRQFQOdSgD2hsAdVTAWmWxUstxzJxynXRS21oR9IjTzmkXNpwKALZBBAII1BB2IMVi07gWc8wWUSzTehCVoQErQeSs26u+tYruBdoOOSr7EwrMmXdyoNdkqFco7AQSPPAadCEIBGd3rw148wZu70yqVmSaqIrlUeauiQUk89weqNEhAZjY+GDin0TF75tU2pFClHSKag1GYqNSK+SAB1xp0IQCEIQCEIQCEIQCEIQCKzfy6ybUlSyo5XEkLbXStFAU17CCQf/kWaEBj8rad5JVAlvA0vEDKl40XpsCVBYB86gD1xYsOLnOyanpq3155x/xtc2QE1IrzJNK00FABF+hAIzLF+ynwqUtGykla5RdVJpUhOYKCqdQIIPYa8o02OCIDNvbks/gZ8rvFp+iy+V1Z/FpXn9XKOmEFlPlU3aNqpKFza6pTShKcxUVU6iSAOwV5xd/zbk8/E8FY4m+bgozV66037YlQIDmKDiPc12cUzNWAvJOMeLrlCwDUCvIg1pXQ1IMX6EBj81aV5JpBlvBEslQyqeFEVB0JzFZA86QT1Rerh3WTZcqGUqzOKOdxdKZlEU07AAAPN2xZoQCEIQCEIQCEIQCEIQCEIQCEIQCEIQCEIQCEIQCEIQCEIQCEIQCEIQCEIQCEIQCEIQCEIQH/2Q==;" parent="1" vertex="1">
          <mxGeometry x="545" y="785" width="30" height="30" as="geometry" />
        </mxCell>
        <mxCell id="lYGBHWqPXG79mbcpfp-p-42" value="" style="shape=image;verticalLabelPosition=bottom;labelBackgroundColor=default;verticalAlign=top;aspect=fixed;imageAspect=0;image=data:image/png,iVBORw0KGgoAAAANSUhEUgAAAOEAAADhCAMAAAAJbSJIAAAA7VBMVEUAAAD///8AAAEGBgba2tve3t7AwMCioqP6+vvq6uvv7/D4+PljYmLLy8zo6OjHx8jT09Svr7CdnZ5MSU1kY2OoqKlpaWkAAAiFhodaWVyOj5G3t7guLi9AQEF5eHqWlpcYGBkgISRbW1tRTFKBgYHj5ex0dHU1NTchHyNAQ0pFREZjZWpUVFUcFhMbIScnKS0SEBMaDSE7MT1JQklZU1ooJyZYXWVpY2p1eIFKSUdoa3FSS2SBho5BPVMAACG6ucAvND0AABwAABAiIDLKx9IaFR80Okqhn6ieo6xvdYVARVNQV2knLTaPlZ7Q1uD86ZzlAAAOvUlEQVR4nO2dCXfbuBHHYVi3rMuyfEiyJCuOlNjeOG1zebuts7vpJpum+/0/TgnimsGAEp0IlOWH/8uzJBIk50ecMwAZxjgV24gyzpt+6n+ei/v0Axd37GAbw/MSkuvl1nddXH5ujCcqKioqKioqKioqKioqKioqKioqKioqKioqKioqKupp6EnPpW9iXcVjFkWyC0y2ZNImlY3BPei7J0swH45apXajUS93K9XLJUiw04zK+EWlseeqe6rT7DChtP2sQ+iUWscq3TaN/BGlhp+2s/iEmlObcvckzD6mpdPVVKfdOSVGL7tr+RI1bthOIiYmD/PwCVXYDiImBufKQKnmku0e4zI/n9AR2zXEGw9Fd1QdTi6H1ZEvd0XvuEuD12MXoN07g/uXQ0J5Ss/yiBndHKz0xVa1+FkNBC6qTRfxxdGw1+l2u53R4eKlPNMjRbzCpvcYWa2uRgMrq2Z5dC0SPcqMrEFDS+N0G61jwvDKSsYk88/ksduk8agEbRza7abtAIg3zSw4pXZaP7eI6LZ7yechsK92zjzZB4/5aQ1hco6hvdA28hO368mXMTCuvpJPHDRZl4dCjWO2TUcSdVwcldG62W8ScfA4CWPn9Rx8Qi22xdqIADnsCZsA0KTQx4iPUU4+oW0Oz7H9oNSd2wx0Dkg/DrNxfBqyrSGiLJxYk6aM5CBI7vcc693RoNqrdH2lV3ar2xBsZpj16EveHFS/fJ5jYwAHdjfTkptga06W7Sg4HK7NPIQ8uwIOXqUJ4Iln1RpOUymIiIhz01vZoFMPPfynE6Zfp5TvkFk6fcx+8v0Ul+Xe1jJRU9xaY/YhIWxBj2gFrNLTmdtSRSkvt4KoL/liAkaZHc9DmyLhktSuvdatcz6MuER35KZAMGOQ/Bhi0+9U/UQdvK8Clj02Q8DkswWS1wrPRNU0Dhy766iJ1d8me0QT5huPOWOEHjigUzSiuNq4RQwfwEdwlUVXNDY8Yt4ukziFcHBwVAQWsIS5bYHUnDxj/JrehtbY096q8+JOFOZis9BMTC515h2bgCyUKeltEIFgxbY2D1Fo8rRAQp41uGxYG9O/Hh9pChsUb0XEm+yNLC4TxWUyor5dVAvPyyRBj6GcI4TMKbocxn6GBRGKq2S5dxUwlmOXZHd56Xp7GYRws+1oGmHBjAnJuDHTPx/BguTurMkeAvOIv/NKaWq3YEQOz3NTSCZyWDVStWxBguPHvzmAA0aalvSHLMu1Sz9hcr4qOH0xxRQX0foBuMuQ8O/4NrymzYj4fmLG7M0bLyJnM1sKCuHDMcPU3bUmDADhP0CqxgFpQzx9amsGGW2ye1BMCxCyqZTaxFFJ1Hpmk9nZF7tbfCf+/gAg2qTvzP5qAcUUzUwcqo1ewjdwI8k/znydyV5zonaj5GZ3uQBC2IweEwsg4Zky6sLPlxVwK1/JFLCY2oFfaDwc154z3WV7CLkmvPO3MCtmwismkU5ugwPj0IgXTg4q280267QbwiunD0wP8Pj7UIcI0ZwqvWjQYspBOEYtFslHiACT+wTdjfL1ydmeK9H2muPgBUIP3MAcfVcBMj8hN4R9eII0N5HXLFsWWie7Y4OILxCSEHprtdn3EIq0aHZUecKJM02H8iN9R5I/plCHHtU4t162H/kJk5RzOCCSA3F1Dk/VHMoTJf/MUaOwhLb9ayvAhxCKITusgM1j6D1xX/OaVkeRwsRBAhPa8dqRBcxJKNKiClhh1D2EkSepruweTB6GLaUvzHVrYGSVWQ+fGUJZWY/hYKE91thIF7Q6Cp/Z5uEgKKFtI4Zw0LGG8JkEucID9vLCS+idmhqCPJySAzYp2xkypwatInyT/qbdQePIh8h9sxvlvsG+DEpoSlkJx1pWE4qZMxrPEOqoo13EVVPE85CA1gscIsPWEN6wBayAqLBmLSjpe7wOKR6yHh6Yy9ytItRhQk04gY1HuQ8Le1JU75i/qC78oaBG0ICibWjYQwiBmgt5q2BjUpn5GJk/oh54HtH0Zm1sUm7CQ8OC+vaqOomrmWep/yIooZkk7DreQgbhG2xc6Ra2T7Bvl1nrKap9MqWzH5TQ1KfWdxDWr7Hfzr7B6tmWzjS95gJP6NdYUELTvq0gHGQQ6lAUPN87mEOd1z7judtzhF2VkUXI1hL6hqBCyJGSq3DoZa/QIOc0JKHpybrrCTkgbJzRSI3SPlxm2kyLqufCaC3q1ebBjEzFKZFdiFAOxw3hNJNPCAUnW9avR4LjuJBTbOZWtlfnoUPIaA2EwgPy1K+niSY4SShE28Cvbmm4QlKES38d1HIXoVwyHwGssefBCG03vcwkBAuiNOG5vwHRx5JlNmrVrJMQxGnLQeiE7ALSyUMI3XgpkiZswvBN19dzgO4zWMz0wlwCL6TLInz/AMISDcGJ88LjbN8fbvLCdExpe2au4tRD5hCuLKW6HiYd0AkNo6L6u7A734ZCtMML1HNBQh0nFjsfQlgSCxLR2tPy0kW0NTZYOMpWxA60msNKUn5rEPMRllXBE0su2bvngLGKEDk7t7vC8DEYEN6HvThnc2BYTxumCJeaGN4Si1wyhGnBhz3fgJn1q+k+m4nB2poKxEAeInL4JpJCEY5X9Ye6pWmzfZ3K1gU1a28Cz7YMBVszDIZYF06HcYucIRGbyEWoS6kiTNN9MOe504TyGrYMhVuKaYf51Av+GUZWxOLYfwLC7FNaQqYixyemXzCLM+QHyN5g4xpQGD1V4RdYVAfsXw8lVBNZ/zbnmENCVEwvg3WJwOWeORcRv6C7Wrt/AGFZ1UM/oUls9oSboAEjD+phJPpI5x3WjLzbkDCtib+aQw9kEtthGCecOnAbE3C4OzRzkp/v3HmHNW0pJfwtm9A05gHX8MGeLyNo4kwD/iQJ/Yw+Qrv+SBOaY20MNQSbEgxitqSRrlBsQoVDvYDJxre61O3LhgbN1RFCe/NChmtgfK/9WhnqaAnnHern/kRiaKObJpmHiiab0I543HZukwLDwz012+XWM+7MO2hnyE1k3dqchNa/COZeCOGHJ0oX2AgjNO9AniHkeCn8g/PwRUhCd3qvqk12dAuXJbT7Thq0N4PwyCWEk0PhCDmZwGyiGWszAklyCcYmOmNolfOsTU5CW6xDErKTPaLSFWSTg5P0B4pN2CfxyJxwrlIK7m3YBxO8r3xIpwGZRTTuI8zwhlziNadPCeUkNB5iKSih+zCX0tQagxBRbKLRZ7+jWMWN7fGZvkdZhGAlQdiHSulzTFLNY2UiBxKb0AKST/CQQz3yLuUitAt6wi5RzH4ZQln27S5hVrana4HWE9pCaoc0d0EJbQ7QaegRcxjVMTOa8d3blCc3IQcrFMM2pX+YyxzhNQdSU4dRm913GBdqKIQJuY9Qs9vVra2gWfjSXEcEGWjD2jgDjEyGJlzv2MTGESH3Etp2xk4NTYIS2iXLctkgXcDUGWNE8Rc9pqfdLkzI1xHaEwQtpIDwrTT+nD6lnbYhjJseDi3ba7yDp1tPKNPBBcqdoIAoD5VrS9cT1k41Y7L7NVo2OsSny0sIH/k/Cktog6ZXimDft56wbtYGI59/4J4uN6F1OZsh8RJ9BAYAp8lTHVP3GK2b7b4ip5OGd9Oovks414TJZtClhgslKsErgUst6XrCU3aGKuCBx5FsW0KSh5IwjTGC9/uEXb2HCFGJc/16WZ7A9xpaWGyOykHIUSVMtgYGZGYGrEN2rXh7kHp6goQ7GoiQUUIh+FhuNzggmIGixcW3nlColBUXHmizZT3E3pMmvIXRr5AxKCXbbroPHgvz6HpCNcwhfMnvoTZ9JSF6LOqSnmjjssM210uT1yZvGZDrSh27OHrCsstYJiF+kDZ4MyNky4xjtMZANnVumTfeOINx4y6M7yBC/KBp+HY0le36sCMK/HrjSKRvoSFNKHPHCPbVLJDwhp07HslFIYCgb3JGF8Bhkk9wNT/orShRcgrnVVd2dQVn/7E30PUqzwuohKlsRQOvG3E9+4Neb8Jgxupkvkecr0DenLs7QapishAGJewrALgjtdUtocn3C9qjoAc4Dshuda01M5Gb1Gt72VEWIdfdu5N/nlFB8wylynhBbWNWHCAaZuvX5VE+V+m2OY17pCvFQDr6iJ5Q1krqQJqBS5+QCKKXMN2wpAGpzowx3H5Qh3pPh3UKA0T3uc38RRRJbqBBxXKfEdM90coO84yJAgu09mWFsBKQed+odMlIZ+K+T1pc4K7QAqoE30xOEXHa9LdnvNqzx4HUriudPotZbAmVgmOuxgWuiihh+vvE80oztbzSPQAlao70mKhwQKe6XOuuzzVG/vK80uya2XsCTwtmmCuHYJagQDIt/H8gVF5ZY9AwJ/k4dYZoe+ZBYo/xtjCb5722QZdedo6N7infwK2QC9oD9lgm4JEtoMU3n444ed/j/R96lzV8St97pvx9P6G9HdVtAwpEMlld/3J9YhOMiW+wJyf9s5tdUGGDrifJrZ8pwV69e//58+dep+SdZwTvifYQArei8Jd5esVZnzYiq9RJ18lm5iBsnwvyddeJs1fPs3lcNXT800vIYeB+a69G9ulLTr6ampIBeBCRowd/in+nbqYSO37PlY3gXQSkQ5H9AvQpgj4q+kAJ2/5czzgEB3jEUBGVwcVHg5hqLWOTPsiEMvEGNlnm5TCPCvLrlzX/l1zpxDkCQmCH4m5bY+11+joorew8qk56g+DMry4eWwlVkkZ9/fDl/q/niT7d//KRuS9i672kx72YOreliJmJzalPyuoQvb9tOSSh08fUjGbIzD+IvCCISaPTHR1O3r+fDActT9W93ELA4kfE2fJh47qjHQNMlfm+IKrGeKfqoFHu/zmn9+j6+bz6mGtc1+hvI2i4EeUb1ynPcdvGfr9WMzblO1l3GTDRfz9l8ZX0oHW3ARP9+uc9yclm58M3se8p8El9+/l/ybCu0Ww2nv/16cuHr2LbIx1n/6CMp/H02EB2Pcmsi4qKioqKioqKioqKioqKioqKioqKioqKioqKioqKiop6unKeW3mC4uz/cMKq+j0gFkMAAAAASUVORK5CYII=;" parent="1" vertex="1">
          <mxGeometry x="672.5" y="710" width="30" height="30" as="geometry" />
        </mxCell>
        <mxCell id="lYGBHWqPXG79mbcpfp-p-43" value="" style="shape=image;verticalLabelPosition=bottom;labelBackgroundColor=default;verticalAlign=top;aspect=fixed;imageAspect=0;image=data:image/png,iVBORw0KGgoAAAANSUhEUgAAAS0AAACnCAMAAABzYfrWAAAAeFBMVEUAAAD////8/Pzw8PBISEg3NzfT09O1tbXc3Nz4+Phvb29ERES7u7tycnLo6OiqqqoODg6Ojo5paWmZmZnCwsJTU1MnJyfk5OSGhoZdXV3MzMykpKStra0wMDDV1dWLi4sfHx8yMjKVlZUWFhZ+fn5OTk4pKSk9PT3S7hMTAAAITklEQVR4nO2c6XriOBBFY5uw75g9oUnC8v5vOLikkrWUIJkwQdO550d/QbaFdFGVSiW5n54AAAAAAAAAAAAAAAAAAAAAAAAAAAAAAAAAAAAAAAAAAAAAAAAAAPjsB9t+2R8deo9uyP+A2TBjOmXj0a1Jm5fMpY0BFmWaZwGjRzcqVWZGomI47Jjh9ehmpclIe6vRnD6+TdpaunFvMBh0nx/cvLR4V9pMrKJj7fFplL2PH9a6xJiTIMu9W9ryvFhrLz37+ygqMXZeoT9FemPv1zKplBi6ZX+EKTLLNo9pYFLQFPhml8zZaQ2309PTU+/QKvTnR7UxGbp+aLXYsGtf14UDFVYsf7x5SbHakAxWiY4msvzg3tmn0v6Pti4p9jzvlabowKHpNrh7ReXTn2xgSrwb973SJfMl+/N97P7iRqUfi0ZvvT4eF/dt68PZGLEylXAYl/rjcn3liT/RCrdlu7Bm0GI3ujYQD1me55IjbF4uZGIK5Lm6cns51qpqdsnym09dZ2l1TAXququdVX3Teju3HtlfnxfFoCMq2M7+oYILR+mRZ5p7bnUsiKszzzP/C7RY24OpqqdKXqzWVQ3fWGueF7l/GqmRF3XlgTrWl0P/2Ix+ycPUUka30QEEFZFazVP4rXWHXuX+afTQXDZ3F4Z1fNuSbl7pi53gSnpqDaiGEf9FZZVa1jiwwvmiy4XD7EpET7fWH59XTf28v6qqqLIcNL4Dm7uPWqtzz+Z886kr5GaQOGrVP/ScnNhwx/3V31ZmV2bFLLi4UEGa0ENygdPqnxf/0n3U6t687dNQLNCkP0W1TtTi/P1ymWc5ZU4j0XY0oVoX1VX8Vvr30uKUnGdQXXJqUReU95bUerHdjUmrVqHDn2suQFLraazkHnjFbTJQWjf4s0Bqaq2r6mbq71CtA5lpe893mzBsOCfpoqGLqJb+abyH3qqyiWqIPwmkphb9pHry89Xi/EM+q+9vcGxWftFvESrZOHPKaMCe1SO+KaamFs1H+m9PLRpHOaXlC2tZbZaPmTzDERG1VJ3uhbYuodWBF8CmplZlajwVOWqpoKE/1gmatjXvbo1awSTGxNRq0GN2pECGWMUvFO15U0BqalW18XLPjbeq1qiGqsRN68M8ZNJekUVkXC2K0pwU2swIIphiimpxbZ5aHTN57ZVzt5LxazW9RVNcUbVGvgEvzZ1laIopqsVOyVXL8cVql6yw+tL3BQyqFdWaeldea4OehqaYolqsSySWJ3QCbPNqSpR9RvYWo2qdMvMlBPlAvaXrp27vpdb9spaVRfFq75paF/ei4ona55RXbDGqllpv1/nBqlKek6lCJ3a9j1rF0OZWDvMalb/mcPGGWq09OfeOiSaK+OCKq5U7ap2rT5zJoADVWaj/JzmImw/F+WMN1bVxHKJafXbuQ93Zg91Vl7haHUct2xAFU0xNrUX1PM9RynPP4mpdlsC5dX+RxTbKbliiyZxVNdQZ2JZvil9XazG58G481Z3VUiE0t1BtXRTdU1QtJ/WwdX2QxQ21OHRr6F9HE5ji19VSs5FpPKl1WLxavIUPfR5qcG4iT72O/pxac8uMXaJq9ZzOjDy5fU/4dbXIs9Rffe+MjRpcRd1Eva4JI4hQLRJFDLmiapGvM9ZLjmrXZnaklrUmTU+tMY2mok7Cv6p1jaPC81JUq3pUdPNRtaj5HILOBa/CqUkiPbWUt3DXNSpyr7+F3P9d1KLRw/tuwlEn1xS/rtbkv1aLd8gKa42stmGaKvGg4/iIJb5LVcbUUjmIvf5kb9Ba1L/b19UiS69N/f5qfZhmbqxTpSbF3KU+5ZJatIw5hDXG1aJBygHIXPV4XKOcZr3oTm2d+KRXsxp7v1VtX6itnoHo5SklJW4lR9SiPhp9qSvu6YCza4oJqkWmzoePMmsvf8pZ5VYkgqCFnVhnRK22Ux6uorVXMKaYoFqq/ybDZ22/K++1qeI5US26KtYpq6Wsmxu/ljo8cwoTVOtF92zNhyb1lv7azmlJatF49Pe7FKJaavyaDFYZGiJndDicSVCtren/infwR5cFl3JYbBSCWm5Y7iKppQZvXUpf9uHdpEyRF0MJqjWxHCtHQB1n1/VJjOU7npuzCdXSO7f1Gmsq95fu44V2gmqR/2BndbYOvjWtV8fKQC0KLGJHdV21TgN9CCIr6kVhaQ/dGjoVweeqSa1ur2Fz3FdXSK3lc8MlqE2dGnEraHzr2Agdn6pzoHqDwknC01rbUUsfanj1K9OoGtqbC81lfULHzrrLhqjnTW2KzUyAFH6WroTzs3gi6Xunsf0DG3QAyQrR9Z61pRbv8Ecz3mJflvbhQjJEaffWfsNBVIsmhu+o9b334Whl42zxvM/qtdqezz6o2a+0vlYM44mwiXnphrHijFhB+Ultiruwnoer5eXKXXhjOtf+3OpAdO/VV6uzmc29G8Z0YFYwRH00d2v+DE7Zklpn4UoeHmIRTul+5nDvVZx5yGHAhx7Mksg4IfFkeM3HuTefVhy/laxMkUIeoEf9JmfWND0+8mj+ta8WcFpu6M5wH+yi7NmRHMFy9LtfS1dJNCezZxyWk8AisX64cenBhyQ3qyrH9XbgcNLbjKbhFp8Kfw18aD3jo1vKYblxL2Umv7M1/tdwDPO+hbfCUhl8DC1i0nHF8vMLOt31kLalyGDjvkRtZxgWfsYFXILkwWqy6p70jFjMdGJuqnMT+en6478U8yZB0d7tzP+fUewf3a5Ekf7zn+CtE2Doe1oNf/Fq5xO8vlhRxea+G+R/JefVhLiSnQEAAAAAAAAAAAAAAAAAAAAAAAAAAAAAAAAAAAAAAAAAAADA38g/wxJas5EB7fgAAAAASUVORK5CYII=;" parent="1" vertex="1">
          <mxGeometry x="672.5" y="850" width="36.05" height="20" as="geometry" />
        </mxCell>
      </root>
    </mxGraphModel>
  </diagram>
</mxfile>
